<svg width="201" height="110" viewBox="0 0 201 110" fill="none" xmlns="http://www.w3.org/2000/svg">
<path d="M23.3556 10.2329C14.0429 13.0339 8.54252 23.0796 9.36315 32.4671C10.2947 43.0688 18.1391 51.9852 27.2996 56.9285C33.1689 60.0893 39.6497 61.9281 46.1883 63.0456C52.8178 64.1797 59.5647 64.7549 66.2735 64.9935C72.7073 65.2242 79.2422 65.2429 85.6442 64.5728C90.5298 64.0637 95.6472 62.9586 99.4669 59.7171C103.272 56.4973 104.631 51.5075 103.32 46.7174C102.028 42.0182 98.4972 37.9049 93.8926 36.1425C84.0224 32.3737 73.2713 40.4857 71.0868 49.9025C68.4917 61.0487 75.0144 72.0496 84.0646 78.3514C93.8718 85.1814 106.583 87.932 118.355 87.994C130.154 88.0548 141.92 85.1822 152.23 79.5801C162.015 74.252 170.45 66.5668 176.67 57.3735C178.206 55.1082 179.593 52.7505 180.836 50.3181C181.559 48.9069 179.408 47.6133 178.683 49.0324C168.996 67.9288 150.526 81.3525 129.373 84.6901C118.521 86.4021 107.132 85.5035 96.6929 81.8849C86.5689 78.3798 76.8953 71.5357 73.8878 60.8276C72.5883 56.1864 72.6527 50.9903 74.924 46.6916C77.0214 42.7133 80.7548 39.5337 85.1359 38.301C89.5251 37.0704 94.1283 38.0433 97.3914 41.3274C100.416 44.3736 102.181 49.0243 100.938 53.2062C99.6334 57.6112 95.2754 59.9994 91.0907 61.1154C85.983 62.4717 80.5051 62.5157 75.2409 62.6021C68.8555 62.7022 62.4625 62.4487 56.1045 61.8446C49.9505 61.2545 43.7899 60.371 37.8425 58.5778C27.8186 55.5637 18.2667 49.4821 13.8218 39.6944C10.1171 31.545 11.6389 21.412 18.6071 15.5483C20.1817 14.2201 22.0273 13.2334 24.0091 12.636C25.5393 12.1702 24.8939 9.76932 23.3556 10.2329Z" fill="black"/>
<path d="M178.631 46.8761C170.269 49.3946 161.321 49.6135 152.803 47.4557C151.238 47.0627 150.586 49.455 152.151 49.848C161.082 52.1123 170.507 51.9233 179.284 49.2802C180.82 48.8244 180.178 46.4146 178.631 46.8761Z" fill="black"/>
<path d="M178.926 47.7308C181.541 57.02 186.389 65.6059 193.002 72.6861C194.113 73.8741 195.891 72.1308 194.786 70.9531C188.463 64.1778 183.841 55.9738 181.349 47.0977C180.909 45.5541 178.488 46.1792 178.926 47.7308Z" fill="black"/>
</svg>
