<svg width="123" height="125" viewBox="0 0 123 125" fill="none" xmlns="http://www.w3.org/2000/svg">
<path d="M12.5492 41.796C12.5669 41.9514 12.7806 42.1571 12.9244 41.9735L12.7542 41.4705L12.5492 41.796Z" fill="white"/>
<path d="M14.2967 41.6249C14.3735 41.2726 14.3998 40.7293 14.0066 40.4371C14.0502 41.0022 13.8803 40.8624 13.9782 41.5185C13.8343 41.7022 13.5749 41.624 13.4986 41.4501C13.5107 41.604 13.1533 41.578 13.2435 41.9078C13.7058 42.0436 13.9967 41.8384 14.1244 41.3327C14.2541 41.3787 14.26 41.5349 14.2967 41.6249Z" fill="white"/>
<path d="M33.7186 34.9799L33.5884 34.9418C33.6258 34.9691 33.6694 34.9805 33.7186 34.9799Z" fill="white"/>
<path d="M46.152 32.6547C46.058 32.6929 46.0197 32.7555 46.0205 32.8063C46.1076 32.7469 46.1777 32.6963 46.152 32.6547Z" fill="white"/>
<path d="M48.3564 32.6646C48.3083 32.6613 48.2693 32.6633 48.2285 32.6635C48.2795 32.7012 48.3321 32.7139 48.3564 32.6646Z" fill="white"/>
<path d="M33.7195 34.9801L34.0511 35.0821C34.0724 34.9006 33.8811 34.9832 33.7195 34.9801Z" fill="white"/>
<path d="M16.2424 38.8727C16.1848 38.9325 16.1517 39.0143 16.1277 39.1015C16.1729 39.0464 16.2151 38.9973 16.2648 38.9517C16.2585 38.9266 16.2516 38.9055 16.2424 38.8727Z" fill="white"/>
<path d="M28.3508 36.6599L28.2541 36.6866C28.2306 36.7564 28.2094 36.8379 28.1911 36.9271L28.3508 36.6599Z" fill="white"/>
<path d="M24.3089 37.9602C24.4013 37.9474 24.3578 37.4963 24.3608 37.2909C24.3408 37.4914 24.288 37.6016 24.2145 37.6622C24.2246 37.7457 24.2544 37.8419 24.3089 37.9602Z" fill="white"/>
<path d="M17.8583 39.9644L17.773 40.0805C17.7973 40.0479 17.8368 40.0047 17.8583 39.9644Z" fill="white"/>
<path d="M31.3014 36.0416C31.3121 36.1078 31.3278 36.1659 31.3474 36.1963C31.3413 36.1397 31.3245 36.0895 31.3014 36.0416Z" fill="white"/>
<path d="M10.3045 46.62C10.3369 46.607 10.3561 46.5927 10.3825 46.5818C10.3324 46.5844 10.2988 46.5919 10.3045 46.62Z" fill="white"/>
<path d="M11.2784 41.2747L11.3187 41.3232C11.4095 41.2911 11.4963 41.2592 11.5798 41.2237L11.2784 41.2747Z" fill="white"/>
<path d="M51.1411 32.3954C51.1417 32.3915 51.1417 32.3915 51.1423 32.3876C51.1083 32.4495 51.1177 32.4374 51.1411 32.3954Z" fill="white"/>
<path d="M38.8945 55.4503C39.4717 55.2399 39.0043 56.2459 39.731 55.8672C39.5403 55.8499 39.3972 55.0953 38.8945 55.4503Z" fill="white"/>
<path d="M16.3721 38.8637C16.4263 38.8276 16.4807 38.7914 16.5378 38.763C16.4546 38.7948 16.4053 38.8228 16.3721 38.8637Z" fill="white"/>
<path d="M39.7278 55.8678L39.7294 55.8696L39.798 55.8301C39.7711 55.8447 39.7547 55.8531 39.7278 55.8678Z" fill="white"/>
<path d="M51.8711 32.5951C51.9819 32.552 52.0705 32.512 52.1573 32.4702C52.0926 32.4952 52.0102 32.5328 51.8711 32.5951Z" fill="white"/>
<path d="M52.6252 30.8784C52.6263 30.8976 52.6273 30.9169 52.6266 30.9343C52.6477 30.8847 52.6393 30.8755 52.6252 30.8784Z" fill="white"/>
<path d="M51.5644 34.4199C51.4879 34.4901 51.4145 34.496 51.4078 34.6287C51.4337 34.6254 51.4541 34.6204 51.4766 34.6133C51.4441 34.5508 51.4472 34.4864 51.5644 34.4199Z" fill="white"/>
<path d="M49.7236 37.7293C49.7639 37.7233 49.8013 37.7095 49.8399 37.7016C49.8528 37.6657 49.8644 37.6241 49.8773 37.5882L49.7236 37.7293Z" fill="white"/>
<path d="M14.0709 55.9756C14.1693 55.8371 14.2906 55.7189 14.4141 55.6124C14.1164 55.834 13.8124 55.4483 14.0709 55.9756Z" fill="white"/>
<path d="M16.3481 39.0918C16.3221 38.9818 16.3275 38.9151 16.372 38.8638C16.3347 38.8912 16.2991 38.9205 16.2652 38.9516C16.2842 39.0132 16.3077 39.0705 16.3481 39.0918Z" fill="white"/>
<path d="M54.731 35.8201L54.3771 36.3236C54.4978 36.1921 54.6258 36.0094 54.731 35.8201Z" fill="white"/>
<path d="M26.5199 77.6223L26.3805 77.534C26.4188 77.6121 26.4684 77.6524 26.5199 77.6223Z" fill="white"/>
<path d="M53.566 37.9181C53.367 37.9561 53.2273 38.0224 53.115 38.1048C53.1339 38.1391 53.1466 38.1757 53.1855 38.2089L53.566 37.9181Z" fill="white"/>
<path d="M12.0435 52.9686C12.2155 53.4466 12.7104 52.8822 13.0906 52.8014C13.4772 53.268 12.756 53.2907 12.5277 53.6413C12.822 53.9073 13.4659 53.8868 13.5512 54.1522C13.4624 54.2235 13.4468 54.2928 13.2997 54.3006C13.9216 54.4104 13.7761 55.3689 14.5393 55.4693C14.4993 55.5301 14.458 55.5714 14.4179 55.6048C14.6848 55.3735 14.9776 55.1975 15.1975 55.0919C15.2938 55.2922 15.7276 55.2652 15.3751 55.5579C15.3342 55.427 15.1739 55.502 15.0308 55.5096L15.2881 55.6309C14.8197 56.1331 14.9731 55.4422 14.5647 55.6694C14.9177 55.9949 15.5929 56.2173 15.5795 56.6249C15.0718 56.9982 15.0676 55.9811 14.7773 56.6773L14.7637 56.0677C14.0782 56.9238 14.6922 55.731 13.9313 56.5912C14.0665 57.3333 14.5314 57.1678 14.665 57.908C15.0294 57.8828 15.0838 57.606 15.4483 57.5807C16.3928 58.1918 14.4252 59.0907 15.4566 59.3469C15.8954 59.3119 16.6005 58.9809 16.4691 59.6687L15.7891 59.8633C16.0245 60.5238 16.8213 59.7028 16.7261 60.5981C16.4344 60.6253 16.2945 60.2278 16.2696 60.3641C15.9975 61.0711 16.7494 60.4599 16.9099 60.78L16.412 61.1684C16.8266 61.7743 17.5654 62.2614 18.0296 62.9215C17.8516 62.9818 17.6238 62.9606 17.549 63.2287C18.297 63.9617 18.4908 65.2034 18.6747 66.2619L19.3092 66.2947C19.3476 66.3729 19.1861 66.5693 19.0514 66.5451C19.07 66.9922 19.3453 66.3749 19.6113 66.4195C19.7496 66.5882 19.4952 66.8424 19.2928 66.8081C19.9959 67.1562 21.0683 67.9248 20.9535 68.8622L20.7523 68.8337C20.8579 69.4346 21.9712 68.7494 21.8298 69.467L21.6996 69.4388C22.1406 70.5911 23.2372 71.4269 23.0886 72.6634C23.8089 72.3493 23.46 73.8625 24.3733 73.2818C24.3516 73.7212 24.2747 73.9327 24.2354 74.1578C24.2155 74.2723 24.2052 74.3883 24.2156 74.5404C24.2168 74.5599 24.2181 74.5793 24.2194 74.5988C24.2206 74.6183 24.2217 74.6379 24.2361 74.6762C24.2586 74.7415 24.2823 74.8126 24.3111 74.8893C24.3686 75.0428 24.438 75.223 24.531 75.4333C24.6456 75.6444 24.8605 75.6603 25.0853 75.6464C25.3101 75.6325 25.5405 75.5929 25.7115 75.7384L25.3914 76.266C25.6493 76.2836 25.8884 76.2806 26.1149 76.2549C26.0733 76.5818 26.0397 76.9221 26.0181 77.2754L26.3793 77.5281C26.2722 77.3206 26.2384 76.8978 26.3268 76.7445C26.5939 76.8946 26.801 77.3473 26.9659 77.8628C27.1296 78.3726 27.2509 78.9452 27.227 79.1597C27.4367 79.311 27.6377 79.4529 27.8286 79.5836L28.1106 79.7682L28.1449 79.7918L28.1631 79.8025C28.1682 79.8081 28.1734 79.8137 28.1801 79.7938L28.252 79.6315L28.3936 79.3091C28.3814 79.5093 28.3268 79.7176 28.2523 79.9407C28.2349 79.9944 28.213 80.0523 28.1929 80.112L28.1609 80.1998C28.1507 80.2024 28.1411 80.2009 28.1314 80.1994C28.0905 80.1957 28.0474 80.194 28.0071 80.2001C28.0474 80.194 28.0831 80.1922 28.1121 80.1965C28.1274 80.1996 28.1412 80.2008 28.1565 80.2039C28.1695 80.1817 28.1834 80.1379 28.1969 80.1118C28.2446 79.9958 28.2808 79.9352 28.3056 79.9123C28.3554 79.8666 28.3671 79.9658 28.3784 80.0689C28.3981 80.2811 28.4282 80.4908 28.7221 79.5987C28.6344 79.5349 28.7443 79.0282 28.7463 78.8442C29.0476 78.9045 29.7652 77.7611 30.2021 76.834L30.2382 77.3955C30.7318 76.6845 31.222 75.8289 31.6956 74.9782C31.9298 74.5568 32.1651 74.1277 32.4027 73.6964C32.4894 73.5412 32.5768 73.3819 32.6658 73.2246C32.7294 73.1077 32.7987 72.9926 32.872 72.8772C32.5291 73.1439 32.0568 72.8246 32.1724 72.5328L32.6982 72.638C32.5218 72.3323 32.3527 72.8383 32.2236 72.3208C32.489 72.0015 32.8887 72.3323 32.9167 72.5989L33.0127 72.1086C33.165 72.1475 33.1781 72.2798 33.3371 72.3848C33.1562 72.0834 34.2422 71.877 33.8981 71.4023L34.0505 71.4411C34.6164 70.5229 34.7122 70.0326 35.1476 69.2719C34.7588 69.0754 35.0268 68.8225 34.8377 68.453C35.3028 67.9607 35.9838 67.4902 36.3549 66.8092C36.4403 66.253 36.0991 66.5215 35.9897 66.2026C36.3742 66.3308 36.7429 65.652 36.7968 66.1147C37.2211 65.292 37.3399 65.0627 37.6531 63.9191C37.4381 63.9619 37.2988 64.0554 37.2125 63.9386C37.2615 63.7287 37.6164 63.5885 37.7753 63.6935L37.7841 63.7576C37.9185 62.383 40.421 61.6084 40.1976 60.3662L40.2059 60.4342L40.367 59.3203C40.6877 58.9159 40.4899 59.6991 40.9052 59.4795C40.894 58.2006 41.9415 57.9161 42.0276 56.902C43.4965 56.7223 43.3013 54.5708 44.506 53.9942L44.22 53.937C44.1026 53.6048 44.5257 53.7251 44.6835 53.5837C44.4708 53.5246 44.3099 53.7307 44.2528 53.5322C45.0627 51.4859 46.9285 49.7317 48.2945 47.8553C48.7797 47.1624 47.1991 46.8981 48.3341 46.2411L48.6652 46.6969C48.9224 45.0067 50.3866 43.7277 50.7043 42.0988C50.7651 42.2286 50.9086 42.2894 50.8281 42.4286C51.3475 42.268 51.4777 41.32 51.1943 41.2021C51.3517 40.9922 51.4807 41.2554 51.703 41.1751C52.0807 40.9554 51.6838 40.237 52.1227 40.2157C52.1943 40.2118 52.1875 40.3452 52.1838 40.4139C52.1241 40.1491 52.7435 39.5117 52.2348 39.5387C52.729 39.0781 52.6322 38.4416 53.1089 38.1071C52.8137 37.6494 53.8387 37.2721 53.251 36.9316C53.8879 37.2303 54.3079 36.1985 54.1847 35.7375C54.3197 35.9299 54.5557 35.5241 54.759 35.7637C54.9656 35.3713 55.0415 34.9681 54.6619 34.9042C54.811 34.8532 54.9242 34.7905 55.0136 34.7153C55.0481 34.6939 55.1192 34.5943 55.1638 34.5293C55.2134 34.4562 55.2574 34.3815 55.2956 34.3051C55.4544 34.0013 55.5347 33.6938 55.6044 33.4201C55.7511 32.8625 55.8356 32.4824 56.7006 32.0217C57.0277 31.034 57.3004 30.2095 57.5711 29.4419C57.8451 28.6644 58.1032 27.9737 58.3737 27.3059C59.0393 26.8186 58.8098 27.2769 58.5977 27.7088C58.3856 28.1406 58.1872 28.5601 58.8298 28.1523C59.0795 27.3936 59.0339 27.0127 59.0464 26.6403C59.0568 26.4519 59.0793 26.2629 59.1758 26.0093C59.2229 25.8835 59.2903 25.7391 59.381 25.5699C59.426 25.4873 59.4784 25.3945 59.5375 25.2955C59.5922 25.2007 59.6831 25.0726 59.6919 25.0232C59.812 24.8271 59.9981 24.6802 60.1579 24.5954C60.1987 24.5717 60.2365 24.5541 60.2762 24.5383C60.3119 24.5227 60.3262 24.5337 60.3483 24.5306C60.3915 24.5322 60.4307 24.534 60.4771 24.512C60.49 24.4624 60.5051 24.4107 60.523 24.3531L60.5364 24.3132C60.5358 24.3034 60.5347 24.2976 60.5335 24.2918L60.5281 24.2452C60.521 24.1829 60.5224 24.1164 60.5283 24.0456C60.1063 24.2715 59.7352 24.4575 59.3799 24.629C59.0167 24.8009 58.6574 24.9726 58.3044 25.142C57.5644 25.4982 56.7622 25.9184 55.8859 26.503C55.9745 26.3907 56.2501 26.1824 56.502 26.0027C56.1327 26.2042 55.8481 26.1939 55.4939 26.7116L55.915 26.4212C55.8578 26.704 55.2063 27.2747 54.6452 27.7623C54.0694 28.2566 53.571 28.6763 53.4396 28.8691C53.7479 28.483 53.8595 28.2912 53.8454 28.2078C53.8337 28.1223 53.7111 28.1387 53.5963 28.1409C53.4816 28.1431 53.3737 28.1389 53.3873 28.013C53.4032 27.885 53.527 27.6476 53.9608 27.1394C53.6846 27.338 53.3486 27.6258 53.2636 27.8963C53.0297 27.9186 52.9848 27.8017 53.4353 27.3571C52.8179 27.6971 52.5947 27.926 52.3985 28.1165C52.2024 28.3069 52.0429 28.4601 51.595 28.6306C51.6237 28.453 51.823 28.3113 51.9689 28.0571C51.6783 28.3308 51.4171 28.6049 51.1534 28.7989C51.0193 28.898 50.8828 28.9855 50.7338 29.0501C50.6584 29.0815 50.5812 29.111 50.4973 29.1331C50.4582 29.145 50.4071 29.1574 50.3748 29.1631C50.3447 29.1666 50.3147 29.1701 50.2829 29.1718C50.3017 29.0652 50.2108 28.9664 50.3759 28.9146C49.9422 29.0824 49.6291 29.4042 49.2738 29.6755C48.9224 29.9465 48.5527 30.1931 48.0624 30.1722C48.2644 29.4024 47.7189 30.0339 47.6093 29.447L47.1269 29.7661L47.3564 30.0023C46.9162 30.1177 46.5597 30.6511 46.1612 30.553L46.472 30.2195L45.6512 30.5468L46.1389 30.6559C45.7104 31.0837 46.2431 31.4094 45.6359 31.3928C45.753 31.3024 45.186 31.493 44.9301 31.1916C44.9301 31.1916 44.9301 31.1916 44.9324 31.1896C44.7205 31.4356 44.5031 31.6936 44.1621 31.6217C44.0681 31.4467 44.1986 30.9351 44.1361 30.8171C43.9422 31.3732 43.0957 31.1912 42.8396 31.7976C42.9275 31.6482 42.9209 31.3278 42.8876 31.2689L42.7178 31.7239C42.5049 31.6374 42.4716 31.5786 42.4982 31.3169C41.871 31.3738 42.7198 32.0486 41.967 31.8734C42.0248 31.8273 41.9949 31.7721 42.1138 31.6837C41.3641 31.6707 40.6762 32.2472 39.9848 32.1841C39.7731 31.6085 40.5832 31.9098 40.3413 31.4374C39.3569 31.7499 38.2994 32.5867 37.3347 32.6301L37.5155 32.6636C37.3925 33.5603 36.7945 32.3733 36.3096 32.8803C36.4285 32.7918 36.4601 32.3675 36.4299 32.4708C35.7665 32.4611 35.0788 32.9515 34.0832 33.429L34.2046 33.1799C33.8088 33.0621 33.1732 33.2778 32.7467 33.2672C32.6269 33.5181 32.384 33.5349 32.5409 33.8239C31.8702 33.3294 31.2491 33.6383 30.6538 33.9751C30.0573 34.3062 29.4911 34.6747 28.8732 34.2967C29.0104 34.26 29.1917 34.0215 29.0816 34.0469C28.7552 34.1953 28.4282 34.3477 28.1064 34.5056C28.2171 34.8578 28.2555 34.6953 28.485 34.9315C28.3766 35.1858 28.1175 35.4305 27.8736 35.4962C28.2933 35.1316 27.8169 34.8986 27.6038 34.7437C27.6463 34.849 27.5929 34.9908 27.6185 35.1048C27.0401 34.5839 27.6045 35.8705 26.8633 35.6262L26.88 35.4218C26.6287 35.5975 26.4195 35.9236 26.1317 35.9507C25.9618 35.5567 26.3836 35.6713 26.3604 35.3145C25.9606 35.4512 25.6809 36.3542 25.2683 36.0455C25.4186 35.8732 25.6602 35.7957 25.8144 35.6232C25.3577 35.2484 25.3261 35.3909 25.0223 35.4051L25.0535 35.4074L24.3384 35.4004L24.5348 35.478C24.3702 36.1069 24.1312 36.2507 23.8574 36.3474C23.587 36.4478 23.28 36.4993 23.0233 36.9825C23.5307 36.0732 23.0519 36.5506 23.0036 36.0621C22.8056 35.9963 22.5101 35.9514 22.5581 35.7904C22.3226 36.292 21.9534 35.6993 21.6297 36.4228C21.5745 36.2809 21.2863 36.5525 21.2639 36.1467C20.8757 36.4412 21.4291 36.3629 21.4402 36.5658C21.1888 36.9548 20.7782 36.9571 20.332 37.0023C19.8904 37.0571 19.4076 37.1668 19.0689 37.715C18.3956 38.3847 18.4363 38.9283 17.853 39.5325C17.5283 39.4422 17.8302 38.9175 17.8302 38.9175C17.3714 38.9262 17.0964 39.1306 16.8158 39.4879C16.8321 39.3286 16.712 39.2703 16.5293 39.1803C16.2565 39.3826 16.5786 39.7881 16.1131 39.8168C16.0997 39.6297 16.0615 39.3382 16.1263 39.1C15.8484 39.4376 15.6489 39.8923 15.3756 40.2257C15.1567 40.0554 15.3909 39.7475 15.4342 39.5222C15.0927 39.8632 14.5489 40.3968 14.6509 40.8257L14.9643 40.7855C14.8404 40.8958 14.7137 40.5309 14.7761 40.3945C14.9356 39.8872 15.3147 40.1957 15.4061 40.318C15.3401 40.3958 15.2773 40.4774 15.2147 40.559C15.5511 40.8483 15.7702 40.6782 15.9727 40.3857C16.1746 40.0971 16.3664 39.6839 16.6265 39.5586L16.7047 40.2568C16.7869 39.9922 16.8806 39.7446 16.9742 39.4834C17.153 39.5736 17.3695 39.8596 17.1746 40.0832C17.651 40.1753 17.3881 39.6981 17.8279 39.8547C17.8825 39.8871 17.8793 39.9244 17.8579 39.9646L18.1185 39.5947C18.1057 39.7578 18.3464 39.9837 18.1074 40.014C18.8424 40.0337 18.9145 39.0496 19.3153 39.3863L19.2787 39.4509C20.0589 38.8206 19.1974 38.9583 19.6779 38.115C19.9491 38.4195 20.2123 38.7244 20.471 39.0335L20.4159 38.5375C20.51 38.513 20.6984 38.4638 20.7181 38.6623C20.9618 38.2014 20.6025 38.4865 20.7109 38.1051C21.2635 38.3438 21.8717 37.3901 22.1533 38.1009C22.2275 37.6822 21.6679 37.9897 22.077 37.5591C22.398 38.3128 22.591 37.2109 23.0776 37.4277C23.0401 37.8953 22.6189 37.8178 23.0953 38.0371C23.1903 37.2279 23.9034 37.9139 24.2072 37.6591C24.1644 37.3718 24.3375 37.2473 24.5903 37.1458C24.8426 37.0483 25.1751 36.9836 25.448 36.795C25.4434 36.8989 25.7227 36.8899 26.0753 36.8653C26.4268 36.8486 26.8479 36.8126 27.1263 36.8389L27.12 36.9409C27.1597 36.3167 27.7268 36.2807 28.1199 36.0505C28.1352 36.4077 28.0735 36.5675 27.8718 36.7836L28.2472 36.6795C28.3183 36.4664 28.4296 36.3333 28.6709 36.2011L28.6095 36.67C29.1063 36.5165 29.5878 35.8922 30.2546 36.0329C30.2725 35.6074 29.6653 34.996 30.3499 34.5566C30.3884 34.7756 30.4323 35.1548 30.2557 35.2894C30.3129 35.2472 30.4584 35.0517 30.5848 35.1213L30.3279 35.5634C30.6339 35.6606 30.4677 35.2116 30.7072 35.1911C30.7196 35.5132 30.8938 35.3807 30.8729 35.644C30.8135 35.6882 30.6579 35.5596 30.5745 35.7049C30.8454 35.7003 31.1781 35.8176 31.2956 36.0363C31.2652 35.8579 31.2771 35.6029 31.4727 35.5162C31.9786 35.3817 31.6605 35.8663 31.962 35.9676C32.0778 35.7169 32.4085 35.8774 32.3989 35.3947C32.547 35.3653 32.5816 35.5845 32.644 35.7025C32.8989 35.4307 33.8698 35.385 33.5621 34.9318L33.4938 34.912C33.5074 34.8995 33.5217 34.8967 33.5375 34.8822C33.5352 34.8843 33.5375 34.8822 33.5352 34.8843L33.5375 34.8822C34.3953 34.2184 35.3435 34.7882 36.201 34.4101L36.2001 34.5725C36.7116 34.2851 37.3434 34.2378 37.7077 33.8174C37.8598 33.7878 38.0711 34.0407 38.0068 34.2476C38.3994 34.0487 38.4416 33.8587 39.016 34.012C38.6224 34.3734 39.1545 34.2354 38.6131 34.2994C39.1266 34.3367 39.2476 34.5729 39.7919 34.0216C39.6106 34.4734 40.1875 34.4662 40.4309 34.2909L40.0652 34.0697C40.3378 33.9535 40.5803 33.9406 40.825 33.9256L40.7039 34.4976C41.2365 34.7236 41.71 34.3404 42.1492 34.0197C42.5884 33.699 42.9932 33.4407 43.4202 33.9012C43.6851 33.4587 42.8341 33.7622 43.0674 33.2627C43.5534 33.229 44.0961 33.8927 44.2527 33.8589C44.9411 34.0003 44.8372 32.9201 45.5478 32.9587C45.4454 32.788 45.3323 32.2971 45.8352 31.9867C46.3216 31.9354 46.4918 32.6386 46.1931 32.8716C46.0763 32.9169 46.0176 32.8711 46.015 32.8047C45.8616 32.9146 45.659 33.0525 45.8659 33.2098L45.9166 33.0016C46.1722 33.1348 46.8482 32.9404 46.7159 33.2957C47.0741 33.0184 46.8482 32.9404 46.5664 32.9104C47.2183 33.0303 47.5506 32.6566 48.2185 32.6622C48.1028 32.5862 47.9843 32.3889 48.0887 32.3619C49.0631 32.3336 48.4675 31.8801 49.0949 31.61C49.4961 31.7882 49.0506 32.3382 49.6676 31.9024C50.0911 31.9777 49.8204 32.3775 49.6816 32.5805C49.9558 32.3116 50.2419 32.2827 50.5084 32.3096C50.6402 32.3261 50.7681 32.3565 50.8829 32.3817C50.9399 32.4256 50.9362 32.4806 50.9544 32.4913C50.9506 32.5189 50.9468 32.5466 50.9429 32.5742L50.9414 32.6133C50.9386 32.6193 50.9477 32.6247 50.9364 32.6351L50.9002 32.6684C50.9636 32.6239 50.9374 32.6136 50.9452 32.5995C50.9491 32.5856 50.9503 32.5776 50.9554 32.5695C50.9633 32.5554 50.9712 32.555 50.9797 32.5506C50.974 32.4218 50.9603 32.2935 50.9381 32.1694C50.9861 32.2217 51.019 32.2121 51.0073 32.3809C51.0345 32.2425 51.0461 32.0737 51.055 31.8972C51.0683 31.7165 51.0749 31.5283 51.1965 31.3067C51.244 31.3902 51.3436 31.2988 51.4371 31.2508C51.5283 31.2049 51.5992 31.205 51.4984 31.5038C51.3682 31.4618 51.3342 31.6064 51.2936 31.7847C51.253 31.9629 51.1864 32.1855 51.1141 32.252C51.1546 32.1735 51.1954 32.1636 51.202 32.2298C51.183 32.2953 51.1509 32.3558 51.134 32.3919C51.0035 32.9035 51.459 31.6878 51.7453 31.5865C51.6156 31.7812 51.5244 31.9544 51.4625 32.0731C51.4029 32.1897 51.3747 32.2499 51.4126 32.2049C51.3717 32.2149 51.7635 31.5837 52.1048 31.229C52.1008 31.3427 52.1862 31.2677 52.3089 31.1516C52.4276 31.0357 52.5728 30.8853 52.6193 30.8769C52.6157 30.8458 52.6083 30.8149 52.5985 30.7861C52.9775 30.3453 53.0859 30.3317 53.4221 30.0987C53.1279 30.441 53.0307 30.4168 52.9705 30.5374C53.4097 30.1032 53.387 30.2375 53.2709 30.4335C53.1713 30.6246 52.9652 30.8722 53.3912 30.519C53.2726 30.6622 53.0199 30.9045 52.7853 31.1302C52.5484 31.358 52.3295 31.5692 52.2301 31.6743C52.4122 31.514 52.4982 31.4488 52.5147 31.444C52.5453 31.4365 52.3605 31.6164 52.2101 31.7614C52.0298 31.9373 51.9297 32.0326 52.1521 31.8662C52.962 31.1639 52.8023 31.2624 53.4652 30.8085C53.4158 30.8092 53.3591 30.82 53.2996 30.8369C53.2706 30.8462 53.2394 30.8577 53.2082 30.8691C53.1431 30.9117 53.0543 30.983 52.9819 31.0357L53.3365 30.741L53.517 30.5925L53.6472 30.4937C53.8209 30.3651 53.9896 30.2446 54.1526 30.1362C54.1763 30.0938 54.1705 30.0785 54.1512 30.0756C54.1415 30.0742 54.1274 30.0769 54.1109 30.0817L54.086 30.0908C54.0797 30.0931 54.0798 30.0931 54.0713 30.0974L54.0361 30.1228C53.8539 30.2557 53.6954 30.3737 53.6914 30.3603C53.6897 30.3584 53.6897 30.3583 53.6903 30.3544C53.7304 30.321 53.7644 30.2898 53.7774 30.2813C54.471 29.7064 54.3257 29.8433 54.861 29.314C54.748 29.4315 54.6801 29.5075 54.6463 29.5523C54.6293 29.5747 54.6238 29.5868 54.6227 29.5946C54.6216 29.6025 54.6408 29.5918 54.6194 29.6183C54.5827 29.6829 54.6495 29.6559 54.7266 29.6263C54.8797 29.5615 55.0493 29.5192 54.5779 29.9864L52.7114 31.4765C52.2381 31.9144 52.4436 31.7842 52.6325 31.7311C52.8338 31.6598 53.0088 31.6779 52.7154 31.9713C52.8218 31.8874 52.9309 31.7975 53.0446 31.7034C53.3308 31.561 53.305 31.6328 53.2362 31.7304C53.1628 31.8321 53.0464 31.9596 53.1102 31.9973C52.6612 32.1757 52.4479 32.3337 52.1522 32.4747C52.3166 32.4131 52.2737 32.4799 52.2938 32.5337C52.3117 32.5894 52.3874 32.6402 52.7671 32.5907C52.5524 32.7019 52.3484 32.7929 52.1551 32.8638C51.9758 33.0181 52.1817 33.0972 52.3529 33.2564C52.439 33.332 52.5234 33.4194 52.5586 33.5212C52.577 33.5731 52.5834 33.6256 52.5735 33.6829C52.5641 33.7362 52.5196 33.8286 52.4621 33.9021C52.3602 33.7412 52.2158 33.7155 52.1026 33.6648C52.0451 33.6385 51.9945 33.606 51.959 33.5492C51.9384 33.5268 51.9364 33.4702 51.9136 33.4499C51.8936 33.4236 51.8782 33.3931 51.8633 33.3587C51.848 33.383 51.831 33.4054 51.8181 33.4276C51.7876 33.4762 51.7635 33.5224 51.7461 33.5624C51.7146 33.6463 51.7234 33.7104 51.8202 33.7522C51.5671 33.8126 51.8647 34.5227 51.4784 34.6195C51.5529 34.7642 51.8382 34.9114 51.6764 35.1528C51.6026 35.1587 51.5364 35.0957 51.5364 35.0957C51.6764 35.1528 51.5124 35.5645 51.9516 35.4707C50.6702 35.8049 50.9487 37.4159 49.8409 37.7076C49.6633 38.2316 49.4289 38.8524 49.2044 39.3026C49.1342 39.2398 49.0628 39.2435 49.1397 39.1729C48.5315 39.6728 49.7557 39.8758 49.0661 40.4505C48.4019 40.6169 49.023 39.9813 48.7238 40.1322C47.7258 39.8487 48.3817 41.017 47.5667 41.2599L47.5757 41.1244C47.0531 41.3498 47.4424 42.1371 47.048 42.6882C47.048 42.6882 46.982 42.6252 46.9087 42.6271C47.1637 43.2181 46.892 44.0346 46.708 44.647C46.4396 44.3228 46.6576 44.3151 46.2224 44.2678C46.1334 44.5386 46.8649 44.4411 46.6829 44.9829C46.3897 45.0631 46.0066 45.3494 45.5806 45.2351L45.8288 44.7563C45.1759 44.7851 45.4984 45.3725 45.2677 45.5843L45.0603 45.4584C44.7208 46.2101 45.2826 46.4541 44.7966 47.2097L45.0129 47.2001C45.3318 47.8562 44.4927 47.4234 44.6681 48.0186L44.0246 47.9081C44.0012 48.2458 44.0122 49.1158 43.8279 49.6597C43.5724 49.1999 43.6942 48.5243 43.6488 48.0571C43.4843 48.332 43.1484 49.015 43.3467 49.2764C43.3574 49.1428 43.2986 48.9424 43.4488 48.8699C43.6989 49.3966 43.6593 49.9347 43.3308 50.4804C42.2849 49.9178 42.22 51.7993 41.132 51.8356C40.9687 52.979 39.8306 53.687 39.2312 54.8457C40.3226 54.8131 39.0596 55.1855 39.9771 55.4948C39.8779 55.7818 39.8034 55.8776 39.7347 55.8754L38.7418 56.4467C38.3758 56.5248 38.6976 56.1125 38.4849 56.0534C38.0775 56.5993 37.9708 56.1336 37.5138 56.4122C37.8724 56.4714 37.8433 56.8074 37.5306 57.0843L38.2056 56.798C38.1956 57.8041 37.0624 57.1737 37.0399 58.1844L36.9167 57.8094C36.8332 58.2951 35.9993 59.3391 36.4582 60.0523C36.3141 60.0815 36.0175 60.0719 36.0625 59.8621C35.3684 60.8087 35.4839 62.4008 34.5927 62.9784L34.4249 62.8093C34.3754 63.0232 34.6311 63.3109 34.2791 63.445C34.1993 63.3945 34.1114 63.2759 34.047 63.3556C34.0624 63.4859 34.125 64.0128 33.8522 64.2014L33.7406 63.8845C32.8779 64.7246 33.4268 65.6267 33.0816 66.5039C32.4584 66.2201 31.7954 66.8872 31.4613 67.218L31.3798 67.1656C30.6171 68.2508 30.7363 69.3068 30.3413 70.4566C29.8054 70.622 29.4006 71.1346 28.9984 71.7136L28.964 71.7623L28.9521 71.7766L28.929 71.8013L28.8843 71.8526C28.8561 71.8854 28.8244 71.9145 28.7956 71.9375C28.7322 71.982 28.6624 72.0013 28.5859 71.9271C28.6254 71.9837 28.6948 72.1229 28.7467 72.2747C28.8008 72.4244 28.8361 72.5947 28.8274 72.6715C28.7693 72.6354 28.7799 72.8422 28.7584 72.9823C28.7415 73.1182 28.7099 73.1609 28.6299 72.7015L28.6515 72.6886C28.5394 72.2896 28.4938 72.1492 28.4687 72.1173C28.4435 72.0854 28.4287 72.1781 28.4089 72.1928L28.4206 73.7221C28.4037 73.6311 28.3868 73.54 28.3665 73.4453L28.3461 73.3368C28.3391 73.2883 28.3344 73.2376 28.3273 73.1891C28.3049 73.0103 28.2822 72.9039 28.2597 72.8386C28.2143 72.7119 28.1491 72.7407 28.0628 72.7512C27.98 72.7653 27.88 72.761 27.8324 72.6637C27.7865 72.5683 27.8039 72.3873 27.9819 72.0864C27.7981 72.2448 27.7478 72.1673 27.5142 72.258L27.9124 71.92L27.9174 71.8844C27.919 71.8726 27.9252 71.8704 27.9039 71.8245C27.8724 71.7538 27.842 71.6889 27.8133 71.6258C27.7542 71.4979 27.6934 71.3818 27.6247 71.2661C27.4851 71.0368 27.3165 70.8032 27.0419 70.495L27.4339 70.4135C27.2082 70.0088 25.903 70.8118 25.6429 70.4696L26.1991 69.9039C25.7359 69.236 25.871 68.1391 24.8696 67.8656C24.9699 67.8114 25.1665 67.7031 25.2601 67.7959C25.1673 67.6267 25.0791 67.2402 24.9155 66.9847C24.7564 66.7252 24.5196 66.5988 24.1181 66.9606C24.683 66.5589 23.7487 66.1997 23.2706 65.9923L23.7285 65.7645C23.0001 65.811 22.8414 65.9016 22.4326 65.5516C22.4273 65.4052 22.7202 65.2292 22.69 65.446C22.7114 64.9382 22.1294 65.4347 22.1124 64.8487L22.4758 64.8313C22.3014 64.4414 22.1735 64.5657 21.7408 64.5711C21.4381 64.4502 21.4561 63.7977 21.8124 63.4912C21.5471 63.5973 21.1212 63.5964 21.117 63.3013C21.2487 63.1769 21.3816 63.1992 21.447 63.2114C21.4085 62.3976 20.4537 62.597 20.6475 61.9C20.7856 61.8007 20.8432 61.7272 20.8656 61.6653C21.119 62.1684 21.3078 62.583 21.2549 62.5662C21.6512 62.3123 21.5078 61.87 22.2243 61.8377C21.7569 61.71 20.8158 61.5702 20.7941 61.0607C20.8217 61.0181 20.8516 60.9736 20.9059 60.9237L20.9712 60.9359C20.9656 60.8208 20.8869 60.7623 20.7817 60.7249C20.7832 60.5585 20.7928 60.4465 20.7372 60.3223C21.0444 60.0712 20.6811 59.7482 20.5983 59.5354C20.168 59.8204 20.1064 59.5127 19.8695 59.9811C19.8846 59.9294 19.9417 59.9869 20.0269 60.1115C20.0554 60.1335 20.0805 60.1655 20.1151 60.1715C20.101 60.1742 20.0868 60.1769 20.0703 60.1817C20.1493 60.3086 20.2466 60.4736 20.3537 60.6675C20.0532 60.6443 19.7804 60.5923 19.9115 60.2175C19.5784 60.286 19.2307 60.3476 19.0643 60.3662C19.536 59.7131 19.5968 58.9801 19.9412 58.6743C19.3983 58.1964 19.0816 57.2977 18.0632 57.3871C17.8724 57.27 18.2042 57.041 18.3029 56.8988C18.4332 56.9545 18.4804 57.0831 18.6263 57.0695C18.2401 56.8396 18.0643 56.0487 17.4379 56.2972C17.497 55.6896 18.088 56.2471 17.7162 55.674L17.9335 55.6567C18.1253 54.7759 17.5276 54.4927 16.9712 54.1544C16.4124 53.8183 15.8713 53.442 16.189 52.4215C16.1522 52.5585 16.1388 52.6257 16.0477 52.699C15.9996 51.7567 15.5502 51.0039 15.1439 50.2254C14.7545 49.4381 14.3929 48.6356 14.5421 47.6221C14.5605 47.0792 14.1586 47.2179 13.7734 47.0799L14.2307 46.7426L13.5017 46.5387C12.8469 46.057 14.318 44.7855 13.2565 44.2922L12.9591 44.5583C12.9217 44.218 12.4488 43.6621 12.8492 43.5352C12.7787 43.5311 12.4706 43.5905 12.6048 43.3916L12.8616 43.2625L12.1899 42.6898C12.2003 42.0065 13.2473 42.3205 13.0443 41.4275C12.8505 41.1482 12.0159 40.8385 11.876 41.0357C11.9022 41.1732 11.8114 41.4422 11.5553 41.5674L11.3321 41.3288C10.5492 41.611 9.69378 41.7191 9.37808 42.6964L9.99752 43.0078L9.67473 43.3419L9.5251 42.9156C9.24815 43.3176 9.6043 43.3378 9.86706 43.4197C9.68139 43.5489 9.56391 43.6843 9.52139 43.8196L10.3997 43.9999C10.1178 44.1968 9.73936 44.0389 9.67318 44.4571C10.0813 44.543 10.2761 43.9243 10.6142 44.2154C10.343 44.6191 10.0389 44.6783 10.4263 44.8279C10.2424 44.959 10.0969 44.955 9.97505 44.8813C10.2915 45.0307 10.291 45.5159 10.7388 45.4589C10.3934 45.9135 11.1226 46.2719 10.3966 46.5844C10.5959 46.5835 11.1005 46.77 11.2123 46.9871C10.2064 46.9721 11.4601 47.8837 10.5025 48.2163C11.3847 48.1557 11.2301 49.1949 11.8609 49.537C11.7899 49.5369 11.644 49.5368 11.6653 49.4691C11.7163 49.8107 11.5156 50.019 11.4459 50.2927C12.0942 50.0137 12.4177 50.4249 12.9024 50.4852C12.4332 51.1773 12.0751 50.633 11.5335 51.0511C12.0399 50.7718 12.2879 51.4551 12.6679 51.1062C12.397 51.5921 12.5765 51.4514 12.1094 51.8734C12.9187 51.5154 12.3476 52.074 12.9274 52.0608C12.7032 52.6792 12.2312 52.5556 12.6525 52.8873C12.482 53.2328 12.0435 52.9686 12.0435 52.9686ZM18.1735 62.8375C18.169 62.8416 18.165 62.8419 18.165 62.8419C18.1095 62.7587 18.0621 62.6888 18.0307 62.6455C18.0587 62.6851 18.0981 62.7417 18.1735 62.8375ZM18.6347 63.6895C18.5956 63.5742 18.5291 63.4426 18.4552 63.3077C18.5892 63.1812 18.7598 63.1173 18.7983 63.2092C18.674 63.2236 18.6934 63.4809 18.6347 63.6895ZM20.7215 59.9964C20.8503 60.0913 20.7871 60.1905 20.7079 60.2632C20.6668 60.2047 20.6165 60.1409 20.5389 60.0609C20.5202 60.0677 20.4981 60.0709 20.4771 60.0798C20.5655 60.0399 20.6511 60.006 20.7215 59.9964Z" fill="white"/>
<path d="M20.0287 60.107C20.0086 60.0943 19.9868 60.0935 19.9701 60.0707C19.9451 60.1213 19.9265 60.1696 19.9124 60.2138C19.9679 60.201 20.0234 60.1883 20.0749 60.1756C20.0564 60.151 20.042 60.126 20.0287 60.107Z" fill="white"/>
<path d="M33.5647 34.9343L33.5874 34.9401C33.5701 34.926 33.5528 34.9119 33.5416 34.8855C33.5583 34.9036 33.5578 34.9173 33.5647 34.9343Z" fill="white"/>
<path d="M25.318 76.3948L25.3923 76.2716L25.2386 76.2583L25.318 76.3948Z" fill="white"/>
<path d="M27.605 34.7488C27.5886 34.7125 27.5642 34.6767 27.518 34.654C27.5236 34.6831 27.5606 34.7142 27.605 34.7488Z" fill="white"/>
<path d="M25.0248 35.4067L24.6353 35.3647C24.8096 35.4045 24.9292 35.4118 25.0248 35.4067Z" fill="white"/>
<path d="M23.0082 35.8584C22.9984 35.943 23.0015 36.0054 23.0074 36.0617C23.0091 36.0636 23.0114 36.0615 23.0132 36.0633L23.0082 35.8584Z" fill="white"/>
<path d="M56.5093 26.006C56.5604 25.9798 56.6166 25.9454 56.6756 25.905C57.1299 25.5947 56.8536 25.7623 56.5093 26.006Z" fill="white"/>
<path d="M44.9314 31.1975C45.0253 31.0906 45.1148 30.9877 45.2123 30.912C45.0479 30.9148 44.9204 30.9354 44.9314 31.1975Z" fill="white"/>
<path d="M54.7671 35.7664C54.7654 35.7646 54.7633 35.7665 54.76 35.7629C54.7496 35.7824 54.7375 35.8001 54.7272 35.8197L54.7671 35.7664Z" fill="white"/>
<path d="M45.6366 30.8153C45.4696 30.7654 45.332 30.8159 45.2124 30.9085C45.3467 30.9092 45.5073 30.9202 45.6366 30.8153Z" fill="white"/>
<path d="M14.5567 39.9078L14.4603 39.9555C14.4767 39.9779 14.483 40.0026 14.4842 40.0219L14.5567 39.9078Z" fill="white"/>
<path d="M14.4838 40.0236L14.4119 40.1337C14.4572 40.1023 14.4947 40.0713 14.4838 40.0236Z" fill="white"/>
<path d="M14.2649 40.3687L14.412 40.1339C14.3424 40.1806 14.2483 40.2326 14.2649 40.3687Z" fill="white"/>
<path d="M17.1328 38.548L17.0976 38.3868C17.0961 38.4262 17.1067 38.4786 17.1328 38.548Z" fill="white"/>
<path d="M17.8847 38.0831C17.6876 38.1405 17.2909 38.0169 17.0742 38.2571L17.0997 38.3848C17.1278 38.0979 17.8091 38.4135 17.8847 38.0831Z" fill="white"/>
<path d="M21.6585 38.4617L21.0005 38.6021C21.1577 38.7188 21.3576 38.8821 21.0894 39.0391C22.0008 39.2017 20.8275 38.7403 21.6585 38.4617Z" fill="white"/>
<path d="M23.6558 37.9522C23.3318 38.1497 23.7088 38.1964 23.7081 38.3003C23.8925 38.069 23.9401 38.0115 23.6558 37.9522Z" fill="white"/>
<path d="M38.1633 34.3854L38.1334 34.8124C38.4043 34.6981 38.1327 34.6478 38.1633 34.3854Z" fill="white"/>
<path d="M40.9455 31.6536L40.6759 31.4464L40.5595 31.8565L40.9455 31.6536Z" fill="white"/>
<path d="M42.6909 34.282L42.5723 34.3667L43.0281 34.117L42.6909 34.282Z" fill="white"/>
<path d="M49.6892 36.9973L50.1906 37.1037C50.205 36.9016 49.708 36.6641 49.6892 36.9973Z" fill="white"/>
<path d="M44.5855 47.0078C44.2962 47.0192 43.9925 47.2328 44.1175 47.4959C44.2742 47.2902 44.5782 47.145 44.5855 47.0078Z" fill="white"/>
<path d="M28.3358 72.6034C28.3507 72.5107 28.3599 72.4165 28.3702 72.3143C28.3558 72.3893 28.3385 72.4567 28.3178 72.5203L28.3358 72.6034Z" fill="white"/>
<path d="M122.257 74.724C122.376 74.6004 122.481 74.2744 122.289 74.2924L121.937 74.8016L122.257 74.724Z" fill="white"/>
<path d="M121.58 73.4413C121.27 73.6534 120.846 74.0535 120.758 74.5805C121.176 74.1142 121.129 74.3397 121.606 73.7783C121.8 73.7582 121.82 74.0252 121.705 74.2172C121.824 74.0934 121.912 74.4018 122.147 74.086C122.114 73.6143 121.846 73.5269 121.412 73.7985C121.399 73.6622 121.521 73.5363 121.58 73.4413Z" fill="white"/>
<path d="M105.745 68.4566L105.821 68.5483C105.81 68.5031 105.781 68.4756 105.745 68.4566Z" fill="white"/>
<path d="M95.8375 65.593C95.92 65.6005 95.9743 65.5541 96.001 65.5053C95.9128 65.5238 95.8407 65.5415 95.8375 65.593Z" fill="white"/>
<path d="M94.3813 64.5611C94.4106 64.5884 94.436 64.6023 94.4664 64.6217C94.4498 64.5626 94.4216 64.5275 94.3813 64.5611Z" fill="white"/>
<path d="M105.745 68.4572L105.551 68.2185C105.454 68.3903 105.631 68.3829 105.745 68.4572Z" fill="white"/>
<path d="M118.78 74.1691C118.849 74.1577 118.917 74.1189 118.988 74.0643C118.931 74.0751 118.878 74.0857 118.825 74.0866C118.809 74.1148 118.796 74.1409 118.78 74.1691Z" fill="white"/>
<path d="M110.36 69.1525L110.442 69.1736C110.493 69.1199 110.549 69.0484 110.607 68.9708L110.36 69.1525Z" fill="white"/>
<path d="M113.79 69.9391C113.721 69.8998 113.497 70.3495 113.381 70.5413C113.506 70.3647 113.604 70.2891 113.685 70.2691C113.723 70.1831 113.759 70.0776 113.79 69.9391Z" fill="white"/>
<path d="M118.824 72.1205L118.947 72.083C118.914 72.0964 118.866 72.1028 118.824 72.1205Z" fill="white"/>
<path d="M107.972 68.4305C107.995 68.3607 108.01 68.2993 108.011 68.2601C107.988 68.3161 107.975 68.3755 107.972 68.4305Z" fill="white"/>
<path d="M11.4971 47.5698C11.5129 47.5386 11.5178 47.5174 11.5309 47.4921C11.4931 47.5301 11.4734 47.5615 11.4971 47.5698Z" fill="white"/>
<path d="M8.54804 44.2976L8.61289 44.2862C8.65631 44.2016 8.69976 44.1169 8.73522 44.0327L8.54804 44.2976Z" fill="white"/>
<path d="M91.4998 63.1743C91.5026 63.1818 91.5064 63.1816 91.5098 63.1852C91.6117 63.1552 91.5642 63.152 91.4998 63.1743Z" fill="white"/>
<path d="M62.562 56.1457C62.7102 56.6381 61.8025 56.5339 62.0963 57.1125C62.1266 56.9232 62.8514 56.5153 62.562 56.1457Z" fill="white"/>
<path d="M118.716 74.0864C118.668 74.0791 118.62 74.0719 118.575 74.0547C118.634 74.0867 118.675 74.0962 118.716 74.0864Z" fill="white"/>
<path d="M62.0962 57.1128C62.0939 57.1149 62.0955 57.1168 62.0955 57.1168L62.1258 57.1725C62.112 57.1484 62.1066 57.1333 62.0962 57.1128Z" fill="white"/>
<path d="M84.1546 61.5985C84.1352 61.6817 84.1372 61.7519 84.1398 61.8183C84.1583 61.7704 84.167 61.7073 84.1546 61.5985Z" fill="white"/>
<path d="M89.256 63.6263L89.148 63.532C89.1818 63.5874 89.218 63.6128 89.256 63.6263Z" fill="white"/>
<path d="M81.0772 61.5293C81.0196 61.4756 81.0232 61.4071 80.898 61.4431C80.8964 61.4685 80.8999 61.4859 80.9029 61.5073C80.9656 61.4531 81.0251 61.4363 81.0772 61.5293Z" fill="white"/>
<path d="M78.1668 60.7877C78.1653 60.8269 78.1768 60.8576 78.1798 60.8926C78.2115 60.8909 78.2507 60.8928 78.2825 60.8911L78.1668 60.7877Z" fill="white"/>
<path d="M20.4352 49.6137C20.4277 49.469 20.4493 49.3149 20.4799 49.1662C20.3836 49.5026 19.9061 49.5104 20.4352 49.6137Z" fill="white"/>
<path d="M118.888 73.9121C118.819 74.0228 118.771 74.0739 118.716 74.0865C118.753 74.0904 118.789 74.0886 118.824 74.0867C118.863 74.0204 118.891 73.9567 118.888 73.9121Z" fill="white"/>
<path d="M79.3882 65.1096L78.9536 64.923C79.0655 64.9994 79.2224 65.0655 79.3882 65.1096Z" fill="white"/>
<path d="M41.335 54.8865L41.2065 54.9127C41.2426 54.934 41.2858 54.9317 41.335 54.8865Z" fill="white"/>
<path d="M77.554 64.6379C77.5418 64.4562 77.4952 64.3371 77.4317 64.2543C77.3977 64.2855 77.3608 64.309 77.3263 64.3579L77.554 64.6379Z" fill="white"/>
<path d="M20.4827 49.1603C20.4844 49.1621 20.4816 49.1646 20.4816 49.1646C20.4816 49.1646 20.4817 49.1646 20.4827 49.1603Z" fill="white"/>
<path d="M16.9635 49.469C17.3996 49.5945 17.4266 48.9337 17.6705 48.6136C18.2712 48.5778 17.7205 49.1177 17.7659 49.4714C18.1631 49.3955 18.6549 48.9096 18.8916 48.9949C18.8671 49.0998 18.898 49.1471 18.79 49.2565C19.3453 48.867 19.8315 49.4966 20.4965 48.9996C20.5036 49.0618 20.4982 49.1149 20.4837 49.1626C20.5498 48.8441 20.6715 48.5363 20.7824 48.3211C20.9859 48.3612 21.3154 48.0346 21.2186 48.4466C21.102 48.4059 21.0231 48.5608 20.9135 48.6683L21.1941 48.5516C21.1345 49.1632 20.8278 48.6748 20.6452 49.0933C21.1299 49.0128 21.8034 48.666 22.0424 48.9037C21.8662 49.4746 21.2395 48.9053 21.4366 49.5013L21.051 49.1677C21.0368 50.133 20.7857 49.0331 20.7167 50.0522C21.2776 50.3725 21.5437 49.9495 22.1024 50.2719C22.3788 50.001 22.2541 49.8061 22.5288 49.5333C23.6608 49.209 22.6259 51.101 23.6024 50.5346C23.9336 50.2098 24.303 49.527 24.6097 50.0154L24.179 50.5999C24.7622 50.8173 24.9192 49.7897 25.3723 50.3741C25.1507 50.5913 24.8043 50.459 24.8638 50.5556C25.0625 51.1535 25.3111 50.2755 25.629 50.3584L25.4527 50.9293C26.138 51.0083 27.0281 50.7928 27.79 50.8736C27.6777 51.0282 27.4785 51.1699 27.5732 51.382C28.5992 51.3373 29.4772 51.944 30.209 52.496L30.7507 52.1052C30.8264 52.1286 30.8002 52.3589 30.6761 52.4281C30.9386 52.6959 30.8264 52.1286 31.0716 51.9825C31.2784 51.9989 31.2077 52.3216 31.0225 52.4332C31.8011 52.1825 33.1167 51.9992 33.5259 52.6719L33.3407 52.7835C33.75 53.1021 34.3233 51.9467 34.5861 52.5098L34.4609 52.5732C35.4411 53.0552 36.8153 52.9178 37.3167 53.8497C37.7719 53.2015 38.2423 54.4265 38.7286 53.4851C39.1336 54.117 38.8831 54.2438 39.6047 54.7845C39.8153 54.8868 40.2088 54.2712 40.5358 54.246L40.3236 54.7502L40.9394 54.3223L40.8839 54.9748L41.208 54.9146C41.1152 54.8588 41.0817 54.6317 41.1583 54.4926C41.674 54.3733 42.0222 55.1021 41.9189 55.3619L43.0891 55.1882C42.9787 55.3858 42.784 55.4099 42.597 55.5059C43.346 55.1277 42.4628 56.0589 43.15 55.7133C43.1347 55.583 43.3145 55.4248 43.3697 55.326C43.4787 55.69 44.0229 55.8331 44.484 55.8086L44.255 56.1358C44.9485 56.41 45.8684 56.363 46.6844 56.5799C46.4589 56.3434 46.7883 55.7625 47.0541 55.766L46.9176 56.321C47.2161 56.0332 46.7534 56.0558 47.2477 55.7361C47.5261 55.8758 47.1918 56.3925 46.9413 56.5193L47.3935 56.4307C47.3471 56.5936 47.2242 56.6549 47.1121 56.8507C47.4089 56.561 47.5219 57.5469 47.992 57.0328L47.9457 57.1956C48.764 57.4104 49.2162 57.3218 49.8944 57.4657C50.1075 57.0123 50.323 57.1789 50.685 56.8603C51.1127 57.131 51.5006 57.6308 52.1083 57.7433C52.6222 57.6221 52.3985 57.3875 52.7041 57.162C52.5522 57.5867 53.1598 57.6992 52.7247 57.92C53.4641 58.0352 53.6687 58.0673 54.7132 57.961C54.689 57.7666 54.6124 57.6651 54.7311 57.5355C54.9241 57.5096 55.0248 57.8055 54.915 57.9992L54.8533 58.0318C56.1334 57.6644 56.6485 59.8418 57.8318 59.1783L57.7683 59.2092L58.7979 58.9686C59.1491 59.1377 58.431 59.2229 58.6018 59.5542C59.8031 59.0874 59.9773 60.0172 60.917 59.7423C60.9542 61.1176 62.9851 60.1743 63.4163 61.157L63.4978 60.8552C63.8221 60.6227 63.6653 61.083 63.785 61.1862C63.8623 60.9571 63.683 60.8708 63.8761 60.7451C65.7188 60.8272 67.1819 62.0621 68.8021 62.7644C69.4018 63.0045 69.8149 61.3568 70.3132 62.2537L69.852 62.7322C71.4111 62.4146 72.458 63.4232 73.9511 63.1971C73.8221 63.3018 73.7502 63.4641 73.6268 63.4295C73.721 63.8863 74.5952 63.699 74.7402 63.3802C74.9195 63.4666 74.661 63.6797 74.7091 63.8728C74.8746 64.1712 75.5912 63.5443 75.5637 63.9683C75.56 64.037 75.4342 64.0769 75.3707 64.094C75.6255 63.9494 76.1556 64.3496 76.1851 63.8551C76.5603 64.1912 77.171 63.8849 77.43 64.2487C77.8936 63.8093 78.129 64.6967 78.5176 64.003C78.1638 64.73 79.0842 64.8063 79.5299 64.5381C79.3349 64.7343 79.6897 64.8349 79.436 65.1125C79.7806 65.1881 80.1494 65.1313 80.2555 64.7383C80.4972 65.778 81.8205 64.3499 81.6803 65.5684C82.8592 65.4314 83.9108 65.401 84.8908 65.4604C84.5392 66.1853 83.8569 65.2786 83.559 66.0574C84.5508 65.9753 85.3213 65.4708 86.0967 65.8659C86.274 66.0227 85.8316 66.1538 85.7027 66.2585C86.6944 66.1765 87.3344 66.7508 88.2722 66.5464C88.239 66.6147 88.1251 66.6677 88.0236 66.7025C88.1833 66.7174 88.3273 66.9015 88.4557 66.5601L88.2709 66.613C88.2405 66.0669 89.3094 65.7558 89.4468 65.5059C88.7763 66.3964 90.0986 65.9388 89.1656 67.0429C89.2932 67.0048 89.4862 66.8791 89.5595 66.6502C89.6793 66.7534 89.6675 66.8949 89.4084 67.1121C90.0278 67.0694 89.9896 66.6645 90.4741 66.7973C90.4021 66.9595 90.2768 66.9956 90.1436 67.1729C90.5297 66.9215 90.9141 66.6682 91.2668 66.9116C91.2008 67.0032 91.1913 67.1426 91.0701 67.106C91.8011 67.2393 92.6448 66.5782 93.2929 67.0798C92.7575 67.7226 93.4584 67.3782 93.2341 67.9966L93.7318 67.9212L93.6921 67.583C94.0544 67.687 94.5701 67.3269 94.7991 67.6082L94.4189 67.7889L95.1581 67.8494L94.8687 67.5204C95.3765 67.3017 95.1626 66.7418 95.5774 67.0347C95.4521 67.0707 95.9419 67.1367 95.9762 67.5418C95.9762 67.5418 95.9761 67.5418 95.9739 67.5439C96.239 67.3968 96.5132 67.2413 96.7192 67.4612C96.7054 67.6732 96.369 68.1196 96.3594 68.259C96.7593 67.7956 97.2793 68.3392 97.7433 67.8548C97.612 67.9616 97.471 68.2801 97.4668 68.3527L97.7973 67.9771C97.9089 68.1531 97.9069 68.2237 97.77 68.4697C98.248 68.6771 97.9446 67.6563 98.4052 68.1444C98.3428 68.1673 98.3374 68.2341 98.212 68.2701C98.7463 68.5978 99.5026 68.309 99.9751 68.6557C99.8742 69.3086 99.4213 68.6793 99.3859 69.2446C100.241 69.34 101.377 68.9392 102.093 69.2827L101.977 69.1792C102.46 68.3436 102.372 69.7549 102.946 69.4486C102.822 69.4865 102.609 69.895 102.677 69.8053C103.151 70.0814 103.863 69.8714 104.791 69.8103L104.594 70.0047C104.824 70.282 105.373 70.3311 105.67 70.5188C105.867 70.3244 106.046 70.4107 106.068 70.0574C106.569 71.5881 108.365 69.8943 108.838 71.1819C108.726 71.1546 108.488 71.3081 108.577 71.3327L109.459 71.3308C109.561 70.938 109.455 71.0767 109.415 70.7424C109.612 70.5441 109.912 70.4304 110.108 70.4806C109.644 70.6383 109.846 71.0853 109.912 71.3341C109.937 71.2115 110.046 71.0982 110.082 70.9788C110.205 71.7529 110.48 70.2417 110.851 70.8363L110.734 71.0263C110.991 70.9794 111.299 70.7694 111.504 70.8837C111.408 71.3427 111.189 71.0276 111.02 71.3829C111.351 71.4396 112.011 70.7198 112.112 71.229C111.925 71.3153 111.726 71.2671 111.539 71.3534C111.632 71.9451 111.725 71.8247 111.925 71.9647L111.908 71.9461L112.351 72.3157L112.275 72.1418C113.17 71.1102 113.182 72.1445 114.047 71.539C113.215 72.1075 113.783 71.9227 113.53 72.4057C113.609 72.5776 113.753 72.7851 113.632 72.907C114.061 72.5751 113.922 73.3279 114.537 72.8394C114.483 73.0027 114.803 72.9249 114.572 73.3089C114.96 73.2687 114.613 73.0134 114.729 72.8214C115.476 72.4099 115.645 73.788 116.705 73.2309C117.473 73.0864 117.823 72.5826 118.53 72.4668C118.618 72.7712 118.114 73.0034 118.114 73.0034C118.332 73.3185 118.592 73.3379 118.975 73.2334C118.854 73.3553 118.865 73.4897 118.88 73.6924C119.141 73.7137 119.294 73.1539 119.512 73.473C119.379 73.6366 119.186 73.8991 118.992 74.0464C119.342 73.973 119.753 73.7497 120.112 73.6817C120.071 73.9773 119.75 74.055 119.567 74.2095C119.955 74.1693 120.54 74.1794 120.832 73.7667L120.688 73.5552C120.819 73.5659 120.586 73.9481 120.462 74.0036C120.027 74.2751 120.117 73.7461 120.171 73.5827L120.427 73.5339C120.617 72.5476 119.515 73.4669 119.114 73.3024L119.584 72.6709L118.904 73.1199C118.889 72.9212 118.989 72.5265 119.244 72.4778C119.087 72.0655 118.869 72.6502 118.773 72.2093C118.77 72.1429 118.798 72.114 118.834 72.0945L118.45 72.2206C118.57 72.0929 118.609 71.7309 118.748 71.8741C118.386 71.3475 117.667 72.1623 117.69 71.5977L117.754 71.567C116.914 71.6057 117.464 72.0461 116.655 72.4862L116.814 71.165L116.524 71.6441C116.456 71.6066 116.321 71.5317 116.436 71.3397C116.002 71.6073 116.391 71.5671 116.085 71.8474C115.913 71.3009 114.979 71.8005 115.241 70.9864C114.944 71.3309 115.466 71.3677 114.96 71.5296C115.219 70.6492 114.441 71.5591 114.279 71.0826C114.575 70.6697 114.789 70.985 114.625 70.5066C114.099 71.1958 114.042 70.1756 113.697 70.2448C113.428 70.8323 112.975 70.3341 112.414 70.4089C112.531 70.2187 111.66 69.8561 111.312 69.5264L111.369 69.4295C111.022 70.0054 110.616 69.7766 110.23 69.8147C110.4 69.4594 110.52 69.3357 110.769 69.2207L110.456 69.1434C110.298 69.3162 110.159 69.392 109.924 69.4084L110.196 68.9831C109.77 68.9001 109.131 69.2941 108.724 68.8599C108.511 69.2684 108.644 70.1299 107.957 70.2623C108.034 70.0332 108.182 69.6399 108.37 69.5868C108.309 69.6058 108.118 69.7294 108.062 69.6091L108.454 69.287C108.282 69.0594 108.189 69.5711 108.01 69.4847C108.153 69.1641 107.966 69.2191 108.105 68.971C108.169 68.954 108.217 69.147 108.348 69.0403C108.153 68.9274 107.97 68.6691 107.989 68.404C107.927 68.5911 107.8 68.8385 107.621 68.8383C107.194 68.7553 107.646 68.4163 107.477 68.1866C107.279 68.3849 107.114 68.0866 106.897 68.5637C106.776 68.5311 106.851 68.3001 106.863 68.1586C106.557 68.3157 105.831 67.9611 105.852 68.5332L105.893 68.5819C105.878 68.5885 105.865 68.5872 105.85 68.5939C105.852 68.5958 105.85 68.5939 105.852 68.5958L105.85 68.5939C104.936 68.8929 104.504 67.9455 103.713 67.9738L103.783 67.8136C103.285 67.889 102.807 67.6855 102.357 67.954C102.233 67.9234 102.193 67.585 102.331 67.4075C101.958 67.4469 101.844 67.6173 101.498 67.2366C101.942 67.0389 101.495 66.9609 101.916 67.1146C101.561 66.8693 101.579 66.5887 100.944 66.9139C101.274 66.5423 100.857 66.316 100.607 66.388L100.77 66.7568C100.523 66.7601 100.344 66.6738 100.162 66.5895L100.504 66.0765C99.9417 65.2006 98.4852 66.8059 98.3208 65.5371C97.931 65.8571 98.6656 65.9218 98.2716 66.3144C97.913 66.1417 97.8447 65.2591 97.723 65.2265C97.3183 64.7902 96.881 65.8894 96.4086 65.5428C96.3971 65.7528 96.2378 66.2875 95.7423 66.3608C95.3815 66.1902 95.6158 65.4285 95.9306 65.3354C96.0323 65.3418 96.0497 65.4151 96.017 65.4795C96.1742 65.4418 96.375 65.4018 96.313 65.1528L96.1776 65.3321C96.068 65.0855 95.5222 64.9678 95.7866 64.6838C95.4106 64.7918 95.5222 64.9678 95.6979 65.1228C95.3189 64.7145 94.9183 64.9138 94.4835 64.5945C94.5187 64.7237 94.4965 64.9676 94.4146 64.9465C93.7628 64.5135 93.9218 65.227 93.3719 65.1819C93.2083 64.813 93.7816 64.5067 93.1602 64.6199C92.9329 64.3405 93.3168 64.0912 93.5099 63.9655C92.8773 64.2163 92.737 63.4959 92.4996 63.3598L92.8143 63.2668C92.6272 63.3218 92.5054 63.2892 92.382 63.2546L92.3568 63.6765C92.241 63.5731 92.1176 63.5386 92.1912 63.3782C91.9304 63.5936 92.0246 64.0503 91.5767 64.3206C91.4687 64.0759 90.8938 64.3803 91.0503 63.8516C91.584 64.1832 91.2073 63.319 91.7584 63.3699C91.6331 63.4059 91.5113 63.3733 91.3961 63.2659C91.4009 63.2031 91.4633 63.1665 91.5155 63.1461C91.1327 62.5384 90.9965 63.6569 90.3943 63.4913C90.5974 63.2223 90.4915 62.9071 90.3679 62.9449C90.609 63.0123 90.2749 63.4566 89.9542 63.6204C89.6642 63.2954 89.4587 63.6799 89.2686 63.6L89.4546 63.7662C89.2514 64.0353 89.0721 63.9489 88.7615 63.9693C88.8371 63.7384 89.0741 63.8784 89.0224 63.7539C88.5008 64.1847 88.5732 63.056 88.0058 63.2915C87.8979 63.0469 88.2241 62.7439 88.1126 62.5678C87.4794 62.8226 87.7756 62.0419 87.1484 62.2259C87.1208 62.6499 87.1863 62.5623 86.6765 62.8515L87.607 62.7845L86.8407 63.2165C87.0818 63.2839 87.4637 63.1051 87.5795 63.2085C87.1951 63.4618 87.2628 63.3721 87.2394 63.7235C87.159 63.0548 86.4287 63.8938 86.2134 63.4005L86.6428 62.4425C86.2477 61.8668 85.3938 62.6713 84.7444 62.2362L84.9137 62.4659C84.645 62.8225 84.4238 62.3999 84.113 62.4927C84.2774 62.1769 84.1726 62.0221 84.1568 61.796C84.0659 62.0375 83.6137 61.6311 83.2662 62.2561L83.1145 61.7456C82.5802 61.418 82.0196 62.4827 81.4817 62.2237C81.8102 61.9187 81.6441 61.6243 82.1443 61.4745C81.9504 61.4222 81.7994 61.3168 81.6993 61.5392C81.6721 61.3098 80.9682 61.8324 80.9222 61.4827C80.7774 61.6019 80.6052 61.9318 80.3958 61.849C80.4 61.7764 80.4671 61.6908 80.4671 61.6908C80.3957 61.8491 80.0293 61.8177 80.0675 62.2226C79.9013 61.0654 78.3502 61.8639 78.2007 60.8702C77.7276 60.8679 77.1676 60.839 76.7697 60.7642C76.8374 60.6746 76.8392 60.604 76.8991 60.6556C76.4944 60.2193 76.1688 61.4946 75.7065 61.0046C75.6224 60.4046 76.1525 60.8049 76.0446 60.5602C76.4217 59.4817 75.2459 60.5166 75.1079 59.7942L75.2332 59.7582C75.0755 59.3185 74.2954 59.9625 73.8151 59.7572C73.8151 59.7572 73.8806 59.6696 73.8865 59.5989C73.3031 60.0485 72.562 60.0586 72.0044 60.0823C72.3365 59.7086 72.3228 59.9206 72.4122 59.4776C72.1651 59.481 72.1837 60.1687 71.6919 60.1733C71.6475 59.9116 71.4162 59.6323 71.5691 59.1723L71.9953 59.2553C72.0366 58.6192 71.4497 59.1375 71.2763 58.9804L71.4153 58.7324C70.742 58.6528 70.456 59.2901 69.7927 59.0671L69.779 59.2791C69.1301 59.8164 69.6206 58.8435 69.0437 59.2185L69.2104 58.5463C68.8957 58.6393 68.0759 58.9451 67.5796 58.9539C68.0376 58.5402 68.6624 58.4307 69.1044 58.2311C68.8633 58.1637 68.2535 58.067 67.9874 58.3492C68.1127 58.3132 68.3057 58.1875 68.3597 58.3098C67.8404 58.7385 67.3367 58.8846 66.8545 58.7498C67.4825 57.5269 65.7224 58.1116 65.789 57.0536C64.7258 57.2939 64.1652 56.4198 63.1296 56.2362C63.0648 57.2961 62.8244 56.1898 62.4532 57.1975C62.1902 57.2017 62.1088 57.163 62.1165 57.0941L61.6665 56.3178C61.6241 55.9855 61.9848 56.1562 62.0604 55.9253C61.5824 55.7179 62.0303 55.4475 61.8049 55.0976C61.7192 55.4719 61.4051 55.5609 61.1718 55.3522L61.3811 55.9163C60.4355 56.262 61.1272 54.9222 60.1764 55.2623L60.5415 55.0062C60.091 55.0966 59.1785 54.6521 58.4669 55.3571C58.4515 55.2268 58.4847 54.9316 58.6782 54.9018C57.8468 54.5547 56.3377 55.2492 55.8649 54.5798L56.0365 54.3535C55.8413 54.3815 55.551 54.7373 55.4485 54.4395C55.5037 54.3407 55.6201 54.2133 55.5518 54.1798C55.4288 54.2411 54.928 54.4946 54.7703 54.2956L55.0759 54.07C54.3521 53.5314 53.4601 54.3984 52.6638 54.3801C52.9784 53.6649 52.4001 53.2575 52.1106 53.0557L52.1658 52.9569C51.1982 52.6112 50.201 53.1142 49.1477 53.1564C48.9076 52.2321 47.3339 52.3294 46.5952 51.6565C46.6806 51.8222 46.3286 52.2107 46.1334 52.2386C45.978 52.0376 45.3144 52.5815 45.6356 51.9325L45.7079 51.9658C45.8234 51.2789 45.3023 51.3378 44.9605 51.2288L44.5272 52.0735C44.1578 50.5907 41.931 51.9201 41.9194 50.6725C41.6055 50.83 41.3315 50.7585 41.0193 50.9179L41.233 50.4605C40.6734 50.187 40.3927 50.0493 39.5893 49.9688L39.8862 49.6791C39.4715 49.5407 38.7696 50.8692 38.3654 50.7968L38.5483 50.0788C37.8001 49.8995 37.3114 49.1037 36.3059 49.5387C36.3628 49.4417 36.471 49.2462 36.6045 49.2509C36.2626 49.1419 35.4534 48.4375 35.169 49.4172C35.4284 48.8008 34.4295 49.1611 33.9089 49.3296L34.1692 48.8912C33.578 49.3824 33.4971 49.5393 32.9549 49.5798C32.8687 49.4905 33.0149 49.1912 33.1139 49.3444C32.8448 49.0105 32.6363 49.7004 32.2876 49.3433L32.5823 49.0968C32.2142 48.9638 32.1758 49.1263 31.8165 49.4115C31.4962 49.5302 31.1364 49.111 31.2588 48.6859C31.0975 48.9233 30.741 49.2025 30.5664 49.026C30.6048 48.8635 30.7277 48.7885 30.79 48.7519C30.2818 48.28 29.6044 49.036 29.357 48.4759C29.4136 48.3242 29.4173 48.2418 29.3994 48.186C29.9044 48.3274 30.3065 48.4567 30.2538 48.481C30.4364 48.0624 30.055 47.8832 30.6365 47.3906C30.1685 47.6209 29.3021 48.1619 28.9849 47.8618C28.9836 47.8149 28.9817 47.772 28.995 47.7047L29.0573 47.6682C28.9815 47.6037 28.8827 47.6188 28.7728 47.6716C28.6747 47.5692 28.6135 47.4981 28.4946 47.4594C28.598 47.0998 28.1036 47.1515 27.904 47.0839C27.7233 47.5454 27.4846 47.4035 27.573 47.8449C27.5552 47.8028 27.6364 47.8005 27.7802 47.8163C27.8165 47.8105 27.8557 47.8123 27.888 47.7929C27.8784 47.8052 27.8687 47.8175 27.8552 47.8299C27.9961 47.8518 28.1769 47.8852 28.3798 47.9292C28.1166 48.1193 27.8607 48.2717 27.7445 47.959C27.5101 48.2258 27.2632 48.4971 27.1371 48.6232C27.1338 47.9112 26.7413 47.4293 26.8365 47.0154C26.0952 47.1115 25.2817 46.8065 24.5135 47.5633C24.2855 47.6283 24.4149 47.2654 24.4068 47.1113C24.5474 47.051 24.6634 47.0956 24.7754 46.986C24.3234 47.1156 23.6807 46.8016 23.3319 47.3796C22.999 46.9943 23.8259 46.8917 23.1657 46.8309L23.3286 46.6677C22.5292 45.3975 20.6823 47.6946 19.8707 46.1159C19.9319 46.2143 19.9628 46.2616 19.9383 46.3666C18.6368 45.4302 16.5481 46.0655 15.4047 44.8155C15.0478 44.5312 14.8344 44.9025 14.4441 45.1267L14.5632 44.6117L13.8651 45.0635C13.0468 45.3163 13.2857 43.5742 12.1338 44.1538L12.094 44.5102C11.831 44.3735 11.0897 44.4696 11.3027 44.1022C11.2461 44.1542 11.0588 44.4223 11.0198 44.2209L11.1232 43.961L10.2174 44.2186C9.74617 43.8915 10.7471 43.22 9.96443 42.9623C9.62208 42.9844 8.78395 43.4926 8.82295 43.694C8.93902 43.7387 9.06375 43.9336 8.96048 44.1934L8.628 44.258C8.24816 45.0021 7.69957 45.7257 8.14244 46.4261L8.81379 46.0812L8.80429 46.4888L8.39903 46.4105C8.47305 46.8135 8.74723 46.5446 8.99972 46.3746C8.95128 46.5807 8.95761 46.7329 9.02111 46.8293L9.79573 46.2248C9.7228 46.5358 9.33259 46.76 9.57112 47.0017C9.93383 46.7202 9.65357 46.2831 10.1073 46.1553C10.1813 46.5583 9.99282 46.8208 10.3853 46.5945C10.3369 46.8005 10.2272 46.9081 10.0866 46.9684C10.4226 46.794 10.7509 47.0289 11.0473 46.6571C11.0961 47.1416 11.8865 46.7494 11.5508 47.4598C11.6983 47.3072 12.2103 47.0022 12.4376 47.0273C11.6711 47.786 13.2225 47.2829 12.7173 48.1764C13.345 47.4799 13.917 48.1029 14.6209 47.8073C14.5661 47.8611 14.4542 47.9707 14.4278 47.9193C14.6886 48.058 14.6727 48.3132 14.7957 48.5062C15.1102 47.8772 15.6251 47.8479 16.0421 47.5166C16.1312 48.222 15.4997 48.2106 15.3543 48.8287C15.5631 48.307 16.1972 48.4709 16.2654 48.0094C16.3703 48.4597 16.4188 48.2536 16.3283 48.818C16.7239 48.032 16.642 48.7466 17.0789 48.3145C17.3022 48.8074 16.8549 49.0874 17.3921 48.9551C17.4703 49.2855 16.9635 49.469 16.9635 49.469ZM27.8506 50.7217C27.8501 50.7256 27.8479 50.7276 27.8473 50.7316C27.7541 50.7209 27.6751 50.7075 27.6245 50.7024C27.6711 50.7077 27.7353 50.7141 27.8506 50.7217ZM28.7182 50.9358C28.6221 50.89 28.4908 50.8559 28.3515 50.8222C28.3904 50.6558 28.4948 50.5015 28.5773 50.5324C28.4851 50.6272 28.6487 50.7693 28.7182 50.9358ZM28.2724 47.299C28.4364 47.2688 28.4437 47.3721 28.4221 47.4711C28.3544 47.461 28.272 47.4575 28.1585 47.4655C28.1483 47.4817 28.1302 47.4983 28.1178 47.5166C28.1674 47.4298 28.2176 47.3528 28.2724 47.299Z" fill="white"/>
<path d="M27.765 47.8342C27.7404 47.8395 27.7221 47.8562 27.6946 47.8537C27.7057 47.9025 27.718 47.9432 27.733 47.978C27.7712 47.9325 27.8111 47.889 27.8447 47.8477C27.8155 47.8434 27.7902 47.8388 27.765 47.8342Z" fill="white"/>
<path d="M105.834 68.5633L105.82 68.5488C105.827 68.5695 105.833 68.5903 105.829 68.6213C105.827 68.5964 105.835 68.5824 105.834 68.5633Z" fill="white"/>
<path d="M40.2759 54.8662L40.3237 54.7502L40.2036 54.8329L40.2759 54.8662Z" fill="white"/>
<path d="M109.911 71.3526C109.903 71.3934 109.902 71.4416 109.924 71.4828C109.932 71.4516 109.925 71.4038 109.911 71.3526Z" fill="white"/>
<path d="M111.925 71.9785L112.145 72.2178C112.06 72.0921 111.989 72.0236 111.925 71.9785Z" fill="white"/>
<path d="M113.407 72.6119C113.463 72.5366 113.493 72.4784 113.522 72.4241C113.52 72.4222 113.52 72.4222 113.518 72.4203L113.407 72.6119Z" fill="white"/>
<path d="M88.0302 66.7141C88.0069 66.7114 87.9831 66.7126 87.9604 66.7197C87.7795 66.7723 87.8913 66.7625 88.0302 66.7141Z" fill="white"/>
<path d="M95.9782 67.5611C95.8607 67.6242 95.7494 67.685 95.6443 67.7161C95.7613 67.7844 95.861 67.8202 95.9782 67.5611Z" fill="white"/>
<path d="M79.4333 65.1273C79.4356 65.1252 79.434 65.1233 79.4386 65.1191C79.4194 65.1166 79.4065 65.1118 79.3879 65.1054L79.4333 65.1273Z" fill="white"/>
<path d="M95.2968 67.619C95.3901 67.7434 95.5114 67.7525 95.641 67.7163C95.5485 67.6565 95.4388 67.5781 95.2968 67.619Z" fill="white"/>
<path d="M120.17 74.5709L120.237 74.6081C120.249 74.5763 120.264 74.5562 120.279 74.536L120.17 74.5709Z" fill="white"/>
<path d="M120.279 74.5396L120.385 74.5072C120.347 74.4975 120.313 74.4915 120.279 74.5396Z" fill="white"/>
<path d="M120.614 74.4377L120.386 74.5065C120.448 74.5247 120.519 74.5561 120.614 74.4377Z" fill="white"/>
<path d="M118.17 73.825L118.074 73.9861C118.102 73.953 118.134 73.9 118.17 73.825Z" fill="white"/>
<path d="M117.513 73.7103C117.648 73.7852 117.739 74.1615 117.997 74.1107L118.073 73.9854C117.867 74.2055 117.777 73.4676 117.513 73.7103Z" fill="white"/>
<path d="M115.749 70.9808L116.224 71.2487C116.207 71.0483 116.189 70.7796 116.448 70.799C116.008 70.1013 116.418 71.2287 115.749 70.9808Z" fill="white"/>
<path d="M114.208 70.3021C114.53 70.2928 114.317 70.0434 114.376 69.9482C114.125 70.0615 114.062 70.0923 114.208 70.3021Z" fill="white"/>
<path d="M102.265 67.2452L102.474 66.8361C102.229 66.8373 102.402 66.9948 102.265 67.2452Z" fill="white"/>
<path d="M99.0426 68.8106L99.1471 69.1246L99.4162 68.7673L99.0426 68.8106Z" fill="white"/>
<path d="M98.9877 65.4998L99.1111 65.4657L98.6743 65.5222L98.9877 65.4998Z" fill="white"/>
<path d="M78.8592 60.5165L78.7029 61.0447C78.8915 60.9917 79.1754 60.4254 78.8592 60.5165Z" fill="white"/>
<path d="M69.9725 58.8226C69.9899 58.5422 69.8186 58.3148 69.5581 58.53C69.7378 58.6123 69.8428 58.8627 69.9725 58.8226Z" fill="white"/>
<path d="M44.3632 51.341L44.6119 51.216L44.2224 51.274L44.3632 51.341Z" fill="white"/>
</svg>
