<svg width="191" height="89" viewBox="0 0 191 89" fill="none" xmlns="http://www.w3.org/2000/svg">
<g filter="url(#filter0_d_340_784)">
<path d="M24.9661 19.7778C19.2712 32.5413 6.90508 58.0684 3 58.0684L24.9661 82L134.186 58.0684L183 32.7692L127.475 2L24.9661 19.7778Z" fill="#25D366"/>
<path d="M24.9661 19.7778C19.2712 32.5413 6.90508 58.0684 3 58.0684L24.9661 82L134.186 58.0684L183 32.7692L127.475 2L24.9661 19.7778Z" stroke="#0D0D0D" stroke-width="2"/>
</g>
<path d="M44.857 52.1172C43.8199 52.3015 42.9836 52.1456 42.3482 51.6495C41.7259 51.1511 41.3381 50.3606 41.1849 49.2781L40.1311 41.8323C39.9779 40.7498 40.1283 39.8636 40.5825 39.1739C41.0498 38.4818 41.802 38.0436 42.839 37.8593C43.8761 37.675 44.7058 37.832 45.3281 38.3304C45.9636 38.8265 46.3579 39.6158 46.5111 40.6984L46.7185 42.1638L44.6706 42.5278L44.4436 40.9237C44.3221 40.0656 43.9004 39.7007 43.1784 39.8291C42.4564 39.9574 42.1561 40.4506 42.2775 41.3087L43.3734 49.0515C43.493 49.8965 43.9138 50.2548 44.6358 50.1264C45.3578 49.9981 45.659 49.5115 45.5394 48.6666L45.2395 46.5477L47.2875 46.1837L47.5649 48.1442C47.7181 49.2267 47.5611 50.114 47.0938 50.8061C46.6397 51.4958 45.8941 51.9329 44.857 52.1172ZM52.7092 50.7216C51.6459 50.9106 50.789 50.7516 50.1386 50.2447C49.4881 49.7377 49.0844 48.9298 48.9275 47.8208L47.8961 40.5334C47.7392 39.4245 47.8999 38.5162 48.3785 37.8086C48.857 37.101 49.628 36.6527 50.6913 36.4637C51.7546 36.2747 52.6115 36.4337 53.262 36.9407C53.9124 37.4476 54.3161 38.2556 54.473 39.3645L55.5044 46.6519C55.6614 47.7608 55.5006 48.6691 55.022 49.3767C54.5435 50.0843 53.7726 50.5326 52.7092 50.7216ZM52.429 48.7414C53.1772 48.6084 53.4869 48.0864 53.358 47.1755L52.2874 39.6109C52.1584 38.7 51.7198 38.311 50.9716 38.444C50.2233 38.577 49.9136 39.0989 50.0425 40.0098L51.1132 47.5745C51.2421 48.4854 51.6807 48.8743 52.429 48.7414ZM55.6696 35.7819L58.387 35.299L61.6683 43.2218L61.7077 43.2148L60.5333 34.9175L62.4631 34.5745L64.425 48.4364L62.1999 48.8319L58.1684 39.1747L58.129 39.1817L59.5612 49.3008L57.6314 49.6438L55.6696 35.7819ZM66.2437 35.9327L63.9792 36.3352L63.6989 34.3549L70.394 33.165L70.6742 35.1452L68.4097 35.5477L70.0913 47.4293L67.9253 47.8143L66.2437 35.9327ZM72.4096 32.8068L75.3436 32.2853L79.5503 45.7482L77.3842 46.1332L76.6008 43.4506L76.6064 43.4902L74.145 43.9276L74.1352 46.7106L72.1266 47.0676L72.4096 32.8068ZM76.0842 41.6544L74.1496 34.9742L74.1102 34.9812L74.1348 42.0009L76.0842 41.6544ZM83.8398 45.1888C82.8027 45.3731 81.9665 45.2172 81.331 44.7212C80.7087 44.2227 80.321 43.4323 80.1678 42.3497L79.1139 34.9039C78.9607 33.8214 79.1112 32.9352 79.5653 32.2455C80.0326 31.5534 80.7848 31.1152 81.8219 30.9309C82.859 30.7466 83.6887 30.9036 84.311 31.4021C84.9464 31.8981 85.3407 32.6875 85.494 33.77L85.7014 35.2354L83.6535 35.5994L83.4264 33.9954C83.305 33.1372 82.8833 32.7723 82.1612 32.9007C81.4392 33.029 81.1389 33.5222 81.2604 34.3803L82.3562 42.1232C82.4758 42.9681 82.8966 43.3264 83.6186 43.198C84.3406 43.0697 84.6419 42.5831 84.5223 41.7382L84.2224 39.6193L86.2703 39.2553L86.5478 41.2158C86.701 42.2983 86.544 43.1857 86.0767 43.8777C85.6225 44.5675 84.8769 45.0045 83.8398 45.1888ZM88.5065 31.9759L86.242 32.3784L85.9617 30.3981L92.6568 29.2082L92.9371 31.1885L90.6726 31.591L92.3542 43.4726L90.1881 43.8575L88.5065 31.9759ZM97.2531 28.3913L100.345 27.8419L103.127 37.518L103.167 37.511L103.141 27.3449L106.232 26.7955L108.194 40.6573L106.146 41.0213L104.661 30.5259L104.622 30.5329L104.532 41.3083L102.72 41.6302L99.6593 31.4148L99.6199 31.4218L101.105 41.9172L99.2149 42.2532L97.2531 28.3913ZM108.046 26.4732L113.953 25.4233L114.233 27.4035L110.492 28.0685L111.01 31.732L113.984 31.2035L114.264 33.1838L111.291 33.7122L111.893 37.9698L115.635 37.3049L115.915 39.2851L110.008 40.335L108.046 26.4732Z" fill="black"/>
<defs>
<filter id="filter0_d_340_784" x="0.724854" y="0.954468" width="189.391" height="87.1454" filterUnits="userSpaceOnUse" color-interpolation-filters="sRGB">
<feFlood flood-opacity="0" result="BackgroundImageFix"/>
<feColorMatrix in="SourceAlpha" type="matrix" values="0 0 0 0 0 0 0 0 0 0 0 0 0 0 0 0 0 0 127 0" result="hardAlpha"/>
<feOffset dx="5" dy="5"/>
<feComposite in2="hardAlpha" operator="out"/>
<feColorMatrix type="matrix" values="0 0 0 0 1 0 0 0 0 1 0 0 0 0 1 0 0 0 1 0"/>
<feBlend mode="normal" in2="BackgroundImageFix" result="effect1_dropShadow_340_784"/>
<feBlend mode="normal" in="SourceGraphic" in2="effect1_dropShadow_340_784" result="shape"/>
</filter>
</defs>
</svg>
