<svg width="191" height="89" viewBox="0 0 191 89" fill="none" xmlns="http://www.w3.org/2000/svg">
<g filter="url(#filter0_d_305_133)">
<path d="M24.9661 19.7778C19.2712 32.5413 6.90508 58.0684 3 58.0684L24.9661 82L134.186 58.0684L183 32.7692L127.475 2L24.9661 19.7778Z" fill="#A0DDBE"/>
<path d="M24.9661 19.7778C19.2712 32.5413 6.90508 58.0684 3 58.0684L24.9661 82L134.186 58.0684L183 32.7692L127.475 2L24.9661 19.7778Z" stroke="black" stroke-width="2"/>
</g>
<path d="M44.8569 52.1172C43.8198 52.3015 42.9835 52.1456 42.3481 51.6495C41.7258 51.1511 41.338 50.3606 41.1848 49.2781L40.131 41.8323C39.9778 40.7498 40.1282 39.8636 40.5824 39.1739C41.0497 38.4818 41.8018 38.0436 42.8389 37.8593C43.876 37.675 44.7057 37.832 45.328 38.3304C45.9634 38.8265 46.3578 39.6158 46.511 40.6984L46.7184 42.1638L44.6705 42.5278L44.4435 40.9237C44.322 40.0656 43.9003 39.7007 43.1783 39.8291C42.4562 39.9574 42.156 40.4506 42.2774 41.3087L43.3733 49.0515C43.4928 49.8965 43.9136 50.2548 44.6357 50.1264C45.3577 49.9981 45.6589 49.5115 45.5393 48.6666L45.2394 46.5477L47.2873 46.1837L47.5648 48.1442C47.718 49.2267 47.561 50.114 47.0937 50.8061C46.6395 51.4958 45.8939 51.9329 44.8569 52.1172ZM52.7091 50.7216C51.6458 50.9106 50.7889 50.7516 50.1385 50.2447C49.488 49.7377 49.0843 48.9298 48.9274 47.8208L47.896 40.5334C47.739 39.4245 47.8998 38.5162 48.3784 37.8086C48.8569 37.101 49.6278 36.6527 50.6912 36.4637C51.7545 36.2747 52.6114 36.4337 53.2618 36.9407C53.9123 37.4476 54.316 38.2556 54.4729 39.3645L55.5043 46.6519C55.6613 47.7608 55.5005 48.6691 55.0219 49.3767C54.5434 50.0843 53.7724 50.5326 52.7091 50.7216ZM52.4288 48.7414C53.1771 48.6084 53.4868 48.0864 53.3579 47.1755L52.2872 39.6109C52.1583 38.7 51.7197 38.311 50.9714 38.444C50.2232 38.577 49.9135 39.0989 50.0424 40.0098L51.113 47.5745C51.242 48.4854 51.6806 48.8743 52.4288 48.7414ZM55.6694 35.7819L58.3869 35.299L61.6682 43.2218L61.7075 43.2148L60.5332 34.9175L62.463 34.5745L64.4249 48.4364L62.1997 48.8319L58.1683 39.1747L58.1289 39.1817L59.5611 49.3008L57.6313 49.6438L55.6694 35.7819ZM66.2436 35.9327L63.979 36.3352L63.6988 34.3549L70.3939 33.165L70.6741 35.1452L68.4096 35.5477L70.0912 47.4293L67.9252 47.8143L66.2436 35.9327ZM72.4095 32.8068L75.3435 32.2853L79.5502 45.7482L77.3841 46.1332L76.6007 43.4506L76.6063 43.4902L74.1449 43.9276L74.135 46.7106L72.1265 47.0676L72.4095 32.8068ZM76.0841 41.6544L74.1495 34.9742L74.1101 34.9812L74.1346 42.0009L76.0841 41.6544ZM83.8397 45.1888C82.8026 45.3731 81.9664 45.2172 81.3309 44.7212C80.7086 44.2227 80.3208 43.4323 80.1676 42.3497L79.1138 34.9039C78.9606 33.8214 79.1111 32.9352 79.5652 32.2455C80.0325 31.5534 80.7847 31.1152 81.8218 30.9309C82.8588 30.7466 83.6885 30.9036 84.3109 31.4021C84.9463 31.8981 85.3406 32.6875 85.4938 33.77L85.7012 35.2354L83.6533 35.5994L83.4263 33.9954C83.3049 33.1372 82.8831 32.7723 82.1611 32.9007C81.4391 33.029 81.1388 33.5222 81.2603 34.3803L82.3561 42.1232C82.4757 42.9681 82.8965 43.3264 83.6185 43.198C84.3405 43.0697 84.6417 42.5831 84.5222 41.7382L84.2223 39.6193L86.2702 39.2553L86.5476 41.2158C86.7009 42.2983 86.5438 43.1857 86.0766 43.8777C85.6224 44.5675 84.8768 45.0045 83.8397 45.1888ZM88.5064 31.9759L86.2419 32.3784L85.9616 30.3981L92.6567 29.2082L92.937 31.1885L90.6724 31.591L92.3541 43.4726L90.188 43.8575L88.5064 31.9759ZM97.2529 28.3913L100.344 27.8419L103.127 37.518L103.166 37.511L103.141 27.3449L106.232 26.7955L108.194 40.6573L106.146 41.0213L104.661 30.5259L104.621 30.5329L104.532 41.3083L102.72 41.6302L99.6592 31.4148L99.6198 31.4218L101.105 41.9172L99.2148 42.2532L97.2529 28.3913ZM108.046 26.4732L113.953 25.4233L114.233 27.4035L110.492 28.0685L111.01 31.732L113.984 31.2035L114.264 33.1838L111.291 33.7122L111.893 37.9698L115.635 37.3049L115.915 39.2851L110.007 40.335L108.046 26.4732Z" fill="black"/>
<defs>
<filter id="filter0_d_305_133" x="0.724731" y="0.954468" width="189.391" height="87.1454" filterUnits="userSpaceOnUse" color-interpolation-filters="sRGB">
<feFlood flood-opacity="0" result="BackgroundImageFix"/>
<feColorMatrix in="SourceAlpha" type="matrix" values="0 0 0 0 0 0 0 0 0 0 0 0 0 0 0 0 0 0 127 0" result="hardAlpha"/>
<feOffset dx="5" dy="5"/>
<feComposite in2="hardAlpha" operator="out"/>
<feColorMatrix type="matrix" values="0 0 0 0 0 0 0 0 0 0 0 0 0 0 0 0 0 0 1 0"/>
<feBlend mode="normal" in2="BackgroundImageFix" result="effect1_dropShadow_305_133"/>
<feBlend mode="normal" in="SourceGraphic" in2="effect1_dropShadow_305_133" result="shape"/>
</filter>
</defs>
</svg>
