<svg width="44" height="44" viewBox="0 0 44 44" fill="none" xmlns="http://www.w3.org/2000/svg">
<g filter="url(#filter0_d_306_301)">
<rect width="40" height="40" fill="white"/>
<rect x="0.5" y="0.5" width="39" height="39" stroke="black"/>
</g>
<g clip-path="url(#clip0_306_301)">
<path d="M25.7382 15.6297C25.695 15.5682 25.6476 15.5004 25.6207 15.4568C26.0223 14.2166 25.6338 13.1572 25.5041 12.8082C25.4926 12.7755 25.4828 12.7513 25.4787 12.7358C25.4719 12.7034 25.458 12.6729 25.4379 12.646C25.4178 12.6192 25.392 12.5967 25.3622 12.5801C25.3324 12.5635 25.2992 12.5531 25.2648 12.5495C25.2305 12.546 25.1957 12.5495 25.1629 12.5597C25.0572 12.5917 24.9473 12.609 24.8364 12.6111C24.4717 12.6329 24.0579 12.6579 22.3726 13.6316H22.3597C21.5828 13.4302 20.7824 13.3229 19.9774 13.3122C19.1869 13.3223 18.4009 13.427 17.6377 13.6238L17.5888 13.6308L17.2835 13.4563C15.9247 12.6649 15.5028 12.6337 15.1307 12.6057C15.0172 12.6014 14.9046 12.5844 14.7953 12.555C14.7628 12.5458 14.7286 12.5432 14.695 12.5473C14.6614 12.5513 14.629 12.562 14.5999 12.5786C14.5709 12.5952 14.5457 12.6174 14.5261 12.6438C14.5065 12.6702 14.4928 12.7002 14.486 12.7319C14.4811 12.7474 14.4721 12.7716 14.4599 12.8043C14.3285 13.1564 13.9327 14.2057 14.3407 15.4615C13.2504 16.7203 12.9223 18.6873 13.545 20.2679C13.9979 21.413 15.1029 22.8487 17.7887 23.3442C17.5741 23.6184 17.3431 23.9346 17.2427 24.4744C16.9236 24.5663 16.6764 24.5788 16.4536 24.5165C16.1777 24.4386 15.968 24.2634 15.7713 23.9486C15.1307 22.9211 14.1579 22.3571 13.1729 22.4373C13.1087 22.4435 13.0497 22.4735 13.0086 22.5209C12.9675 22.5683 12.9477 22.6293 12.9533 22.6905L13.0652 23.894C13.0716 23.9586 13.1037 24.0184 13.1548 24.061C13.206 24.1035 13.2723 24.1258 13.3402 24.1231C13.6666 24.1083 14.0306 24.4596 14.2501 24.8133C14.6737 25.4942 15.2474 25.9405 15.9549 26.1376C16.3494 26.2504 16.7648 26.2804 17.1725 26.2256V29.0659C17.1724 29.1183 17.1908 29.1692 17.2247 29.2104C17.2586 29.2517 17.3061 29.2809 17.3594 29.2933C19.0847 29.6901 20.8841 29.6901 22.6093 29.2933C22.6629 29.281 22.7105 29.2519 22.7445 29.2106C22.7786 29.1694 22.797 29.1184 22.797 29.0659V25.0906C22.797 24.1418 22.4837 23.7344 22.176 23.3448C24.8618 22.8487 25.9667 21.413 26.4197 20.2671C27.3411 17.9262 26.1741 16.2576 25.7382 15.6297ZM25.9578 20.1027C25.5293 21.1847 24.4448 22.5565 21.7092 22.9461C21.6685 22.9518 21.6298 22.9671 21.5969 22.9909C21.5641 23.0146 21.5381 23.0459 21.5212 23.0818C21.5044 23.1176 21.4973 23.157 21.5006 23.1962C21.5039 23.2354 21.5176 23.2731 21.5403 23.306C21.6178 23.4181 21.6969 23.5186 21.7729 23.6176C22.0585 23.9797 22.3049 24.2921 22.3033 25.0929V28.8851C20.7733 29.2076 19.1881 29.2076 17.6581 28.8851V25.9498C17.6581 25.9148 17.6499 25.8803 17.6341 25.8487C17.6182 25.8172 17.5951 25.7894 17.5666 25.7675C17.538 25.7456 17.5046 25.7301 17.4689 25.7221C17.4332 25.7142 17.396 25.714 17.3602 25.7215C16.9411 25.8192 16.5024 25.8089 16.0888 25.692C15.5028 25.5269 15.0279 25.1506 14.6663 24.575C14.4215 24.1753 14.0037 23.7585 13.5311 23.6713L13.4593 22.9001C14.171 22.9413 14.863 23.408 15.3486 24.1878C15.6097 24.6061 15.9198 24.853 16.314 24.9668C16.6682 25.0656 17.0583 25.0361 17.5381 24.8733C17.5814 24.859 17.6196 24.8336 17.6484 24.7997C17.6773 24.7659 17.6956 24.725 17.7014 24.6817C17.7724 24.1363 17.987 23.8668 18.2139 23.5786C18.2816 23.4929 18.3518 23.404 18.4179 23.3075C18.4441 23.2693 18.458 23.2246 18.4579 23.1789C18.4585 23.1225 18.4377 23.0677 18.3993 23.0247C18.3609 22.9818 18.3075 22.9536 18.249 22.9453C15.5126 22.5558 14.428 21.1839 14.0004 20.1019C13.4291 18.6639 13.736 16.8675 14.739 15.7333C14.7826 15.6864 14.8137 15.63 14.8296 15.5691C14.8455 15.5083 14.8458 15.4446 14.8304 15.3836C14.4688 14.3413 14.7488 13.4361 14.8875 13.052C14.9601 13.0622 15.027 13.0668 15.0923 13.0715C15.4098 13.0956 15.7697 13.1221 17.0305 13.8505L17.339 14.0273C17.3847 14.0611 17.438 14.0842 17.4947 14.0947C17.5514 14.1053 17.6099 14.103 17.6655 14.0881C17.6769 14.0848 17.6887 14.0828 17.7006 14.0819C17.716 14.0811 17.7313 14.0788 17.7463 14.0749C18.4741 13.8875 19.2237 13.7883 19.9774 13.7796C20.7447 13.792 21.5073 13.8966 22.247 14.0912C22.2601 14.0944 22.2735 14.0967 22.287 14.0982L22.3866 14.1076C22.4332 14.1121 22.4803 14.1037 22.522 14.0834C22.5576 14.0699 22.5919 14.0538 22.6249 14.0351C24.2081 13.119 24.5737 13.1003 24.8667 13.0801C24.9336 13.0762 25.0005 13.0723 25.0772 13.0614C25.216 13.4548 25.4853 14.3639 25.1303 15.3906C25.0805 15.537 25.1588 15.6492 25.331 15.8954C25.766 16.5162 26.7943 17.9862 25.9578 20.1027Z" fill="#262626" stroke="black" stroke-width="0.75"/>
<path d="M18.9048 31.8638H22.4762" stroke="black" stroke-width="2" stroke-linecap="round"/>
<path d="M19.18 31.8635H11.025C10.2748 31.8619 9.55568 31.5732 9.02461 31.0602C8.49354 30.5473 8.19366 29.8518 8.19043 29.1255V11.8801C8.19205 11.1529 8.49122 10.4559 9.02245 9.94162C9.5537 9.42739 10.2738 9.1378 11.025 9.13623H28.5225" stroke="black" stroke-width="2" stroke-linecap="round" stroke-linejoin="round"/>
<path d="M31.3571 11.8804V29.114C31.3571 29.8423 31.0586 30.5408 30.5272 31.0563C29.9958 31.5718 29.2748 31.8622 28.5225 31.8638H23.0125" stroke="black" stroke-width="2" stroke-linecap="round" stroke-linejoin="round"/>
<path d="M31.4048 9.90678C31.4048 9.91234 31.4037 9.91603 31.4025 9.91873C31.4012 9.92179 31.3992 9.9246 31.3969 9.92688C31.3945 9.92915 31.3925 9.93023 31.3914 9.93065C31.3908 9.9309 31.39 9.93122 31.3878 9.93122C31.3856 9.93122 31.3848 9.9309 31.3842 9.93065C31.3831 9.93023 31.3811 9.92915 31.3787 9.92688C31.3763 9.9246 31.3744 9.92179 31.373 9.91873C31.3719 9.91603 31.3708 9.91234 31.3708 9.90678C31.3708 9.90122 31.3719 9.89752 31.373 9.89481C31.3744 9.89176 31.3763 9.88895 31.3787 9.88667C31.3811 9.88439 31.3831 9.88331 31.3842 9.88289C31.3848 9.88264 31.3856 9.88232 31.3878 9.88232C31.39 9.88232 31.3908 9.88264 31.3914 9.88289C31.3925 9.88331 31.3945 9.88439 31.3969 9.88667C31.3992 9.88895 31.4012 9.89176 31.4025 9.89481C31.4037 9.89752 31.4048 9.90122 31.4048 9.90678Z" fill="#262626" stroke="#262626"/>
</g>
<defs>
<filter id="filter0_d_306_301" x="0" y="0" width="44" height="44" filterUnits="userSpaceOnUse" color-interpolation-filters="sRGB">
<feFlood flood-opacity="0" result="BackgroundImageFix"/>
<feColorMatrix in="SourceAlpha" type="matrix" values="0 0 0 0 0 0 0 0 0 0 0 0 0 0 0 0 0 0 127 0" result="hardAlpha"/>
<feOffset dx="4" dy="4"/>
<feComposite in2="hardAlpha" operator="out"/>
<feColorMatrix type="matrix" values="0 0 0 0 0.8 0 0 0 0 0.8 0 0 0 0 0.8 0 0 0 1 0"/>
<feBlend mode="normal" in2="BackgroundImageFix" result="effect1_dropShadow_306_301"/>
<feBlend mode="normal" in="SourceGraphic" in2="effect1_dropShadow_306_301" result="shape"/>
</filter>
<clipPath id="clip0_306_301">
<rect width="25" height="25" fill="white" transform="translate(7 8)"/>
</clipPath>
</defs>
</svg>
