<svg width="44" height="44" viewBox="0 0 44 44" fill="none" xmlns="http://www.w3.org/2000/svg">
<g filter="url(#filter0_d_306_302)">
<rect width="40" height="40" fill="#0072B1"/>
<rect x="0.5" y="0.5" width="39" height="39" stroke="black"/>
</g>
<g clip-path="url(#clip0_306_302)">
<path d="M31.357 11.8822V29.1293C31.3521 29.8541 31.0523 30.5477 30.5226 31.0596C29.9929 31.5716 29.276 31.8604 28.5277 31.8635H11.0196C10.2703 31.8604 9.55254 31.5707 9.02264 31.0575C8.49276 30.5443 8.19366 29.8492 8.19043 29.1234V11.8822C8.19205 11.1544 8.49129 10.4569 9.02267 9.94225C9.55405 9.42762 10.2743 9.1378 11.0258 9.13623H28.5277" stroke="white" stroke-width="2" stroke-linecap="round" stroke-linejoin="round"/>
<path d="M31.4046 9.90723C31.4046 9.91289 31.4036 9.91669 31.4024 9.91947C31.401 9.92261 31.3989 9.92547 31.3966 9.92778C31.3942 9.93007 31.3921 9.93117 31.3911 9.93159C31.3905 9.93184 31.3898 9.93214 31.3875 9.93214C31.3852 9.93214 31.3845 9.93184 31.3838 9.93159C31.3829 9.93117 31.3808 9.93007 31.3785 9.92778C31.3761 9.92547 31.3741 9.92261 31.3726 9.91947C31.3714 9.91669 31.3704 9.91289 31.3704 9.90723C31.3704 9.90157 31.3714 9.89778 31.3726 9.89499C31.3741 9.89186 31.3761 9.88901 31.3785 9.8867C31.3808 9.88439 31.3829 9.88331 31.3838 9.88288C31.3845 9.88263 31.3852 9.88232 31.3875 9.88232C31.3898 9.88232 31.3905 9.88263 31.3911 9.88288C31.3921 9.88331 31.3942 9.88439 31.3966 9.8867C31.3989 9.88901 31.401 9.89186 31.4024 9.89499C31.4036 9.89778 31.4046 9.90157 31.4046 9.90723Z" fill="#262626" stroke="white"/>
<path d="M18.1846 18.2702H21.2465V19.2428H21.3077C21.6997 18.6497 22.3488 18.0566 23.9471 18.0566C25.9251 18.0566 27.401 19.3199 27.401 22.0719V27.6172H24.4003V22.4396C24.4003 21.2534 23.9654 20.4112 22.8816 20.4112C22.5417 20.4139 22.2115 20.521 21.9385 20.7171C21.6657 20.9132 21.464 21.1882 21.3628 21.5024C21.2966 21.738 21.2739 21.9829 21.2954 22.2261V27.6232H18.2948V20.5951" stroke="white" stroke-width="2" stroke-linecap="round" stroke-linejoin="round"/>
<path d="M15.9064 20.6424V27.7002H12.9119V18.27H15.9064" stroke="white" stroke-width="2" stroke-linecap="round" stroke-linejoin="round"/>
<path d="M16.1025 15.109C16.105 15.4344 16.0075 15.7532 15.8226 16.025C15.6377 16.2967 15.3736 16.5091 15.0639 16.6353C14.7542 16.7614 14.4127 16.7957 14.0829 16.7336C13.753 16.6716 13.4496 16.5161 13.2112 16.2868C12.9727 16.0575 12.8099 15.7648 12.7435 15.4458C12.677 15.1268 12.7099 14.7958 12.8379 14.495C12.9659 14.1941 13.1833 13.9368 13.4625 13.7557C13.7418 13.5747 14.0702 13.478 14.4062 13.478" stroke="white" stroke-width="2" stroke-linecap="round" stroke-linejoin="round"/>
</g>
<defs>
<filter id="filter0_d_306_302" x="0" y="0" width="44" height="44" filterUnits="userSpaceOnUse" color-interpolation-filters="sRGB">
<feFlood flood-opacity="0" result="BackgroundImageFix"/>
<feColorMatrix in="SourceAlpha" type="matrix" values="0 0 0 0 0 0 0 0 0 0 0 0 0 0 0 0 0 0 127 0" result="hardAlpha"/>
<feOffset dx="4" dy="4"/>
<feComposite in2="hardAlpha" operator="out"/>
<feColorMatrix type="matrix" values="0 0 0 0 0 0 0 0 0 0.322034 0 0 0 0 0.5 0 0 0 1 0"/>
<feBlend mode="normal" in2="BackgroundImageFix" result="effect1_dropShadow_306_302"/>
<feBlend mode="normal" in="SourceGraphic" in2="effect1_dropShadow_306_302" result="shape"/>
</filter>
<clipPath id="clip0_306_302">
<rect width="25" height="25" fill="white" transform="translate(7 8)"/>
</clipPath>
</defs>
</svg>
