<svg width="44" height="44" viewBox="0 0 44 44" fill="none" xmlns="http://www.w3.org/2000/svg">
<g filter="url(#filter0_d_306_303)">
<rect width="40" height="40" fill="#25D366"/>
<rect x="0.5" y="0.5" width="39" height="39" stroke="black"/>
</g>
<g clip-path="url(#clip0_306_303)">
<path d="M31.357 11.8808V29.119C31.3553 29.8453 31.057 30.5416 30.5269 31.0558C29.9969 31.57 29.2782 31.8603 28.5277 31.8635H11.0196C10.2703 31.8604 9.55254 31.5709 9.02264 31.0579C8.49276 30.545 8.19366 29.8502 8.19043 29.1249V11.8808C8.19204 11.1544 8.49044 10.4581 9.0205 9.94391C9.55056 9.42971 10.2692 9.13936 11.0196 9.13623H28.5277" stroke="white" stroke-width="2" stroke-linecap="round" stroke-linejoin="round"/>
<path d="M31.4046 9.90693C31.4046 9.91251 31.4036 9.91622 31.4024 9.91895C31.4011 9.92203 31.3991 9.92485 31.3967 9.92714C31.3943 9.92943 31.3923 9.93052 31.3912 9.93095C31.3906 9.93121 31.3898 9.93153 31.3875 9.93153C31.3852 9.93153 31.3844 9.93121 31.3838 9.93095C31.3827 9.93052 31.3807 9.92943 31.3783 9.92714C31.376 9.92485 31.3739 9.92203 31.3726 9.91895C31.3714 9.91622 31.3704 9.91251 31.3704 9.90693C31.3704 9.90135 31.3714 9.89763 31.3726 9.89492C31.3739 9.89184 31.376 9.88901 31.3783 9.88671C31.3807 9.88443 31.3827 9.88334 31.3838 9.8829C31.3844 9.88264 31.3852 9.88232 31.3875 9.88232C31.3898 9.88232 31.3906 9.88264 31.3912 9.8829C31.3923 9.88334 31.3943 9.88443 31.3967 9.88671C31.3991 9.88901 31.4011 9.89184 31.4024 9.89492C31.4036 9.89763 31.4046 9.90135 31.4046 9.90693Z" fill="#262626" stroke="white" stroke-width="2"/>
<path d="M19.0542 18.3127L17.86 17.1567L17.3272 17.6725C16.975 18.0137 16.7771 18.4764 16.7771 18.9588C16.7771 19.4412 16.975 19.9039 17.3272 20.2451L20.2544 23.0787C20.607 23.4196 21.085 23.6112 21.5833 23.6112C22.0817 23.6112 22.5596 23.4196 22.9121 23.0787L23.445 22.5629L22.5448 21.6856" stroke="white" stroke-width="2" stroke-linecap="round" stroke-linejoin="round"/>
<path d="M27.0764 20.4998C27.0765 21.6855 26.7544 22.8504 26.1423 23.8775C25.5302 24.9046 24.6497 25.7576 23.5893 26.3512C22.5288 26.9446 21.3257 27.2575 20.1008 27.2584C18.8758 27.2593 17.6722 26.9483 16.6107 26.3565L15.0247 26.7655L13.114 27.2575L13.6223 25.408L14.0448 23.8727C13.5108 22.9748 13.1973 21.9699 13.1285 20.9359C13.0596 19.902 13.2373 18.8666 13.6478 17.9097C14.0584 16.9528 14.6907 16.1001 15.4959 15.4175C16.3012 14.7349 17.2578 14.2406 18.2919 13.973C19.3259 13.7054 20.4097 13.6715 21.4595 13.8739C22.5093 14.0764 23.4967 14.5098 24.3459 15.1407C25.195 15.7716 25.8828 16.583 26.3563 17.5122C26.8297 18.4415 27.0762 19.4637 27.0764 20.4998Z" stroke="white" stroke-width="2" stroke-linecap="round" stroke-linejoin="round"/>
</g>
<defs>
<filter id="filter0_d_306_303" x="0" y="0" width="44" height="44" filterUnits="userSpaceOnUse" color-interpolation-filters="sRGB">
<feFlood flood-opacity="0" result="BackgroundImageFix"/>
<feColorMatrix in="SourceAlpha" type="matrix" values="0 0 0 0 0 0 0 0 0 0 0 0 0 0 0 0 0 0 127 0" result="hardAlpha"/>
<feOffset dx="4" dy="4"/>
<feComposite in2="hardAlpha" operator="out"/>
<feColorMatrix type="matrix" values="0 0 0 0 0.0895161 0 0 0 0 0.510484 0 0 0 0 0.246774 0 0 0 1 0"/>
<feBlend mode="normal" in2="BackgroundImageFix" result="effect1_dropShadow_306_303"/>
<feBlend mode="normal" in="SourceGraphic" in2="effect1_dropShadow_306_303" result="shape"/>
</filter>
<clipPath id="clip0_306_303">
<rect width="25" height="25" fill="white" transform="translate(7 8)"/>
</clipPath>
</defs>
</svg>
