<svg width="248" height="261" viewBox="0 0 248 261" fill="none" xmlns="http://www.w3.org/2000/svg">
<path opacity="0.732492" d="M173.03 51.5529C185.394 64.7387 196.762 77.642 207.786 91.9674C220.887 108.99 239.103 122.981 244.084 143.88C249.571 166.902 248.134 192.563 236.699 213.287C225.111 234.288 204.364 250.4 181.436 257.419C159.793 264.045 136.372 258.13 115.056 250.528C97.3805 244.223 87.3913 225.815 70.4129 217.82C50.3562 208.377 21.3672 217.239 7.54292 199.905C-5.78127 183.197 4.74125 158.237 5.8713 136.89C6.97567 116.028 5.33919 94.7975 14.1107 75.8362C23.4404 55.6684 38.7449 38.9507 57.0217 26.3189C76.5995 12.788 99.2025 -4.09789 122.45 0.958844C146.153 6.11481 156.435 33.8554 173.03 51.5529Z" fill="#FFCC80"/>
</svg>
