<svg width="168" height="166" viewBox="0 0 168 166" fill="none" xmlns="http://www.w3.org/2000/svg">
<path opacity="0.412704" d="M77.0905 0.705463C86.4407 2.87878 91.9513 12.6579 100.441 17.1387C108.124 21.1938 116.539 23.0671 124.763 25.8668C136.692 29.9281 151.987 28.1445 160.381 37.5445C167.987 46.0637 168.474 60.2244 165.214 71.1703C161.822 82.5595 144.474 86.428 142.339 98.1183C139.82 111.918 156.748 124.983 152.923 138.48C149.641 150.058 136.615 158.989 124.671 160.461C111.317 162.107 100.542 145.507 87.1304 146.589C75.2503 147.547 69.2607 166.989 57.393 165.889C46.1997 164.851 41.1418 150.624 34.3156 141.693C28.6691 134.305 24.0436 126.32 20.5605 117.698C17.4646 110.035 18.1745 101.374 14.9517 93.7639C11.1959 84.8946 0.880588 78.8855 0.0608157 69.2888C-0.727949 60.0551 6.33806 52.0373 10.6884 43.8545C15.0196 35.7075 19.2682 27.4713 25.772 20.9266C32.438 14.2187 40.2986 8.67149 49.0971 5.20462C57.9655 1.71017 67.806 -1.45259 77.0905 0.705463Z" fill="#FFD08A"/>
</svg>
