<svg width="162" height="169" viewBox="0 0 162 169" fill="none" xmlns="http://www.w3.org/2000/svg">
<path d="M111.653 4.37009C127.335 8.52213 144.534 12.9326 154.146 26.0008C163.559 38.8002 161.658 56.2333 161.484 72.1209C161.334 85.7384 156.703 98.1213 153.208 111.284C149.018 127.063 151.532 146.727 138.92 157.094C126.333 167.442 107.551 161.032 91.2972 162.177C73.9733 163.398 54.4972 174.028 40.2861 164.046C25.9556 153.979 31.3516 131.147 24.3016 115.116C17.5764 99.8235 0.232358 89.1511 0.00341811 72.4468C-0.230443 55.3835 11.576 40.5065 23.1066 27.9264C34.2801 15.7359 48.3821 6.48067 64.3628 2.22929C79.9273 -1.91137 96.0839 0.247837 111.653 4.37009Z" fill="#FFCC80"/>
</svg>
