<svg width="187" height="184" viewBox="0 0 187 184" fill="none" xmlns="http://www.w3.org/2000/svg">
<path opacity="0.739909" d="M119.872 7.6244C130.234 10.264 139.315 16.0729 148.673 21.3427C159.031 27.1762 171.649 30.6377 178.397 40.5828C185.118 50.4881 184.71 63.6764 185.561 75.7095C186.37 87.1629 186.663 98.8363 183.29 109.787C180.014 120.423 170.985 127.967 166.358 138.061C161.116 149.497 163.098 164.847 154.096 173.479C145.322 181.894 131.509 181.585 119.565 182.934C108.43 184.191 97.4834 181.613 86.2911 181.137C74.5233 180.635 61.9907 185.034 51.275 180.024C40.5865 175.027 34.9458 163.081 27.5892 153.694C20.4643 144.603 12.934 135.844 8.3034 125.192C3.56099 114.284 -0.981301 102.541 0.185093 90.6589C1.34484 78.8443 9.97128 69.4668 14.8317 58.6879C19.4996 48.3358 22.1914 37.1824 28.5261 27.8066C35.2547 17.8477 41.9569 6.07244 53.1035 2.04299C64.4516 -2.05932 76.6874 5.05817 88.6809 6.06075C99.145 6.93548 109.683 5.02897 119.872 7.6244Z" fill="#FFCC80"/>
</svg>
