<svg width="184" height="158" viewBox="0 0 184 158" fill="none" xmlns="http://www.w3.org/2000/svg">
<path d="M115.632 11.1079C128.683 11.4184 145.543 -1.09085 154.286 8.60306C163.438 18.7497 144.215 36.3759 149.707 48.8878C155.411 61.8835 182.863 60.2495 183.182 74.4383C183.491 88.1603 158.566 87.8441 150.839 99.1878C144.613 108.327 149.898 121.766 144.405 131.363C138.435 141.795 129.692 151.591 118.436 155.806C107.142 160.034 94.6365 156.021 82.6761 154.476C70.6631 152.923 55.9997 155.375 47.5967 146.651C38.6039 137.314 47.0269 119.351 39.0229 109.154C30.1769 97.8845 8.25544 101.278 1.90227 88.4369C-3.78115 76.9496 4.52064 62.7469 10.4379 51.3782C15.9002 40.8838 26.5807 34.6065 34.4969 25.8141C41.8778 17.6162 45.3847 4.56537 55.816 0.977638C66.5831 -2.72558 77.8245 5.14968 89.0508 7.05093C97.9856 8.56411 106.572 10.8924 115.632 11.1079Z" fill="#FFC672"/>
</svg>
