<svg width="128" height="127" viewBox="0 0 128 127" fill="none" xmlns="http://www.w3.org/2000/svg">
<path d="M77.011 0.166837C87.0498 1.05054 96.5545 4.83534 104.921 9.92083C113.185 14.9441 120.967 21.2321 125.118 29.4083C129.145 37.3394 127.716 46.4509 127.895 55.1738C128.056 62.987 127.498 70.5905 126.124 78.306C124.66 86.5272 123.873 94.9454 119.507 102.28C114.841 110.12 108.7 117.692 100.095 122.035C91.4527 126.399 81.009 127.674 71.1675 126.684C61.7737 125.739 54.2375 119.73 45.4704 116.541C36.947 113.441 27.3635 112.852 19.8851 108.032C12.0133 102.958 4.75384 96.378 1.456 88.1694C-1.82705 79.9976 1.4557 71.0689 1.54298 62.3766C1.6326 53.4514 -1.87174 44.1156 1.98089 35.8954C5.8491 27.6421 14.8237 22.4254 22.7796 17.0653C30.4959 11.8667 38.8741 7.74397 47.9755 4.908C57.3755 1.97897 67.1137 -0.704405 77.011 0.166837Z" fill="#FFD08A"/>
</svg>
