<svg width="254" height="231" viewBox="0 0 254 231" fill="none" xmlns="http://www.w3.org/2000/svg">
<path opacity="0.942949" d="M152.245 14.7033C169.571 20.2242 182.688 31.6865 198.965 39.1981C215.844 46.9871 240.814 45.6872 250.324 59.9635C260.039 74.547 247.627 92.8475 245.847 109.575C244.427 122.92 241.442 135.649 240.846 149.039C240.045 167.02 251.6 186.468 241.715 202.338C232.158 217.681 210.429 225.526 190.701 229.546C171.645 233.43 151.921 228.77 132.979 224.498C116.026 220.675 98.5172 216.239 85.8003 205.889C73.7626 196.092 73.9886 179.41 63.7855 168.185C52.6424 155.925 33.3159 150.732 23.6938 137.558C12.1783 121.791 -7.86746 101.279 3.25061 85.3041C15.8594 67.1873 56.396 82.5552 72.8752 66.8918C89.8205 50.7852 68.6446 17.2667 88.7173 4.06819C106.059 -7.33479 131.763 8.1768 152.245 14.7033Z" fill="#FFC670"/>
</svg>
